<svg width="87" height="97" viewBox="0 0 87 97" fill="none" xmlns="http://www.w3.org/2000/svg">
<path fill-rule="evenodd" clip-rule="evenodd" d="M31.4628 10.4485C32.2676 4.54309 37.3566 0 43.5014 0C49.6468 0 54.7329 4.54352 55.5373 10.4485H77.083C82.5524 10.4485 87 14.8616 87 20.3194V87.1291C87 92.5867 82.5541 97 77.083 97H19.5027C19.0683 97 18.6516 96.8281 18.3438 96.5219L0.483432 78.7571C0.173964 78.4493 0 78.0311 0 77.5949V20.3194C0 14.8618 4.44594 10.4485 9.91698 10.4485H31.4628ZM31.4628 13.7292H9.91698C6.2476 13.7292 3.28482 16.6861 3.28482 20.3194V75.9545L19.5027 75.9544C19.9383 75.9544 20.3561 76.1273 20.6641 76.4349C20.9721 76.7425 21.1452 77.1597 21.1452 77.5948L21.1452 93.7193H77.083C80.7524 93.7193 83.7152 90.7624 83.7152 87.1291V20.3194C83.7152 16.6863 80.7511 13.7292 77.083 13.7292H55.5373C54.7329 19.6341 49.6468 24.1778 43.5014 24.1778C37.3566 24.1778 32.2676 19.6346 31.4628 13.7292ZM17.8603 91.411L5.61902 79.2352L17.8603 79.2351L17.8603 91.411ZM43.5014 3.28066C38.5992 3.28066 34.6368 7.23104 34.6368 12.0888C34.6368 16.9467 38.5993 20.8972 43.5014 20.8972C48.403 20.8972 52.3632 16.9472 52.3632 12.0888C52.3632 7.23045 48.4031 3.28066 43.5014 3.28066ZM15.7619 34.1964C15.7619 33.2905 16.4973 32.5561 17.4044 32.5561H69.5953C70.5024 32.5561 71.2377 33.2905 71.2377 34.1964C71.2377 35.1024 70.5024 35.8368 69.5953 35.8368H17.4044C16.4973 35.8368 15.7619 35.1024 15.7619 34.1964ZM21.6025 45.8627C21.6025 44.9568 22.3378 44.2224 23.2449 44.2224H69.5953C70.5024 44.2224 71.2377 44.9568 71.2377 45.8627C71.2377 46.7686 70.5024 47.503 69.5953 47.503H23.2449C22.3378 47.503 21.6025 46.7686 21.6025 45.8627ZM15.7619 57.529C15.7619 56.623 16.4973 55.8886 17.4044 55.8886H69.5953C70.5024 55.8886 71.2377 56.623 71.2377 57.529C71.2377 58.4349 70.5024 59.1693 69.5953 59.1693H17.4044C16.4973 59.1693 15.7619 58.4349 15.7619 57.529ZM33.2835 69.1952C33.2835 68.2893 34.0189 67.5549 34.9259 67.5549H69.5953C70.5024 67.5549 71.2377 68.2893 71.2377 69.1952C71.2377 70.1012 70.5024 70.8356 69.5953 70.8356H34.9259C34.0189 70.8356 33.2835 70.1012 33.2835 69.1952Z" fill="url(#paint0_linear_41_3848)"/>
<defs>
<linearGradient id="paint0_linear_41_3848" x1="0" y1="97" x2="87" y2="97" gradientUnits="userSpaceOnUse">
<stop stop-color="#ED5C2F"/>
<stop offset="0.510417" stop-color="#F28230"/>
<stop offset="1" stop-color="#FAB331"/>
</linearGradient>
</defs>
</svg>
