<svg width="84" height="91" viewBox="0 0 84 91" fill="none" xmlns="http://www.w3.org/2000/svg">
<path fill-rule="evenodd" clip-rule="evenodd" d="M33.2508 0.612461C34.0674 -0.204154 35.3914 -0.204154 36.208 0.612461L41.3697 5.77418C41.397 5.80004 41.4235 5.82657 41.4493 5.85373L83.0305 47.4349C83.8471 48.2516 83.8471 49.5755 83.0305 50.3922C82.2139 51.2088 80.8899 51.2088 80.0732 50.3922L75.9085 46.2274L40.7561 62.7086L52.8314 74.7839C54.5889 76.4977 55.6849 78.8979 55.6849 81.5514C55.6849 86.7694 51.4544 90.9998 46.2365 90.9998C43.583 90.9998 41.1828 89.9038 39.469 88.1464L26.7647 75.4421L21.3314 80.8755C17.6417 84.5651 11.6586 84.5651 7.96894 80.8755L7.96868 80.8752L2.76726 75.6719C-0.92242 71.9823 -0.92242 65.9992 2.76726 62.3095L19.8238 45.253L37.4148 7.73368L33.2508 3.56969C32.4341 2.75307 32.4341 1.42908 33.2508 0.612461ZM29.722 72.4849L42.4361 85.199L42.457 85.2202C43.4169 86.2078 44.7534 86.8177 46.2365 86.8177C49.1447 86.8177 51.5028 84.4596 51.5028 81.5514C51.5028 80.0683 50.8929 78.7318 49.9053 77.7719L49.8841 77.751L37.1699 65.0369L29.722 72.4849ZM37.6115 59.564L72.7638 43.0827L40.5594 10.8783L24.0782 46.0307L37.6115 59.564ZM21.5621 49.4291L34.2127 62.0797L18.3741 77.9182C16.3177 79.9747 12.9826 79.9747 10.9262 77.9182L5.72475 72.715L5.72448 72.7147C3.66804 70.6583 3.66804 67.3232 5.72448 65.2667L21.5621 49.4291ZM82.5 18.6705C83.5293 18.1469 83.9393 16.8879 83.4156 15.8586C82.892 14.8293 81.633 14.4193 80.6037 14.943L73.1157 18.7523C72.0864 19.2759 71.6765 20.5348 72.2001 21.5642C72.7237 22.5935 73.9827 23.0034 75.012 22.4798L82.5 18.6705ZM67.7851 0.227753C68.8144 0.751394 69.2244 2.01033 68.7007 3.03966L64.8914 10.5276C64.3678 11.557 63.1089 11.9669 62.0795 11.4433C61.0502 10.9196 60.6403 9.66071 61.1639 8.63138L64.9732 1.14338C65.4968 0.114055 66.7558 -0.295888 67.7851 0.227753Z" fill="url(#paint0_linear_41_3849)"/>
<defs>
<linearGradient id="paint0_linear_41_3849" x1="1.6868e-05" y1="90.9998" x2="64.1264" y2="45.7237" gradientUnits="userSpaceOnUse">
<stop stop-color="#ED5C2F"/>
<stop offset="0.510417" stop-color="#F28230"/>
<stop offset="1" stop-color="#FAB331"/>
</linearGradient>
</defs>
</svg>
