<svg width="96" height="97" viewBox="0 0 96 97" fill="none" xmlns="http://www.w3.org/2000/svg">
<mask id="mask0_41_3855" style="mask-type:luminance" maskUnits="userSpaceOnUse" x="0" y="0" width="96" height="97">
<path d="M0 0.666504H96V96.6665H0V0.666504Z" fill="white"/>
</mask>
<g mask="url(#mask0_41_3855)">
<path fill-rule="evenodd" clip-rule="evenodd" d="M45.5157 90.851C43.8444 92.5222 41.1391 92.5216 39.4701 90.8514L5.81562 57.197C4.14554 55.5279 4.14457 52.8221 5.81562 51.1511L50.4846 6.48193C51.2878 5.67892 52.3747 5.22908 53.5086 5.22908H87.1626C88.2969 5.22908 89.3829 5.67895 90.1839 6.48101L90.1856 6.48265C90.9876 7.28362 91.4375 8.36982 91.4375 9.5042V43.158C91.4375 44.2922 90.9877 45.3789 90.1847 46.1819L80.8411 55.5256L45.5157 90.851ZM47.9906 93.3258L82.773 58.5434L92.6596 48.6568C94.119 47.1973 94.9375 45.2203 94.9375 43.158V9.5042C94.9375 7.44288 94.1198 5.46603 92.6604 4.00778C91.2021 2.54747 89.2247 1.72908 87.1626 1.72908H53.5086C51.4464 1.72908 49.4694 2.54757 48.0099 4.00686L3.34075 48.6762C0.303301 51.7137 0.302734 56.6358 3.34114 59.6722L36.9943 93.3254C40.0309 96.3636 44.9531 96.3633 47.9906 93.3258ZM78.1251 15.7285C79.6776 15.7285 80.9376 16.9885 80.9376 18.541C80.9376 20.0935 79.6776 21.3535 78.1251 21.3535C76.5726 21.3535 75.3126 20.0935 75.3126 18.541C75.3126 16.9885 76.5726 15.7285 78.1251 15.7285ZM48.0002 39.3999C43.7079 39.3999 40.2252 35.9171 40.2252 31.6248C40.2252 27.3344 43.7077 23.8498 48.0002 23.8498C52.2926 23.8498 55.7751 27.3344 55.7751 31.6248C55.7751 35.9171 52.2924 39.3999 48.0002 39.3999ZM43.7252 31.6248C43.7252 33.9842 45.641 35.8999 48.0002 35.8999C50.3593 35.8999 52.2751 33.9842 52.2751 31.6248C52.2751 29.2668 50.3591 27.3498 48.0002 27.3498C45.6413 27.3498 43.7252 29.2668 43.7252 31.6248ZM40.2252 65.7078C40.2252 69.9983 43.7077 73.4829 48.0002 73.4829C52.2927 73.4829 55.7751 69.9983 55.7751 65.7078C55.7751 61.4156 52.2923 57.9328 48.0002 57.9328C43.708 57.9328 40.2252 61.4156 40.2252 65.7078ZM48.0002 69.9829C45.6413 69.9829 43.7252 68.066 43.7252 65.7078C43.7252 63.3486 45.641 61.4328 48.0002 61.4328C50.3593 61.4328 52.2751 63.3486 52.2751 65.7078C52.2751 68.066 50.359 69.9829 48.0002 69.9829ZM29.9253 50.4165C28.9588 50.4165 28.1753 49.633 28.1753 48.6665C28.1753 47.7 28.9588 46.9165 29.9253 46.9165H66.0751C67.0416 46.9165 67.8251 47.7 67.8251 48.6665C67.8251 49.633 67.0416 50.4165 66.0751 50.4165H29.9253Z" fill="url(#paint0_linear_41_3855)"/>
</g>
<defs>
<linearGradient id="paint0_linear_41_3855" x1="1.0625" y1="1.7291" x2="94.9375" y2="1.7291" gradientUnits="userSpaceOnUse">
<stop stop-color="#ED5C2F"/>
<stop offset="0.510417" stop-color="#F28230"/>
<stop offset="1" stop-color="#FAB331"/>
</linearGradient>
</defs>
</svg>
