<svg width="77" height="90" viewBox="0 0 77 90" fill="none" xmlns="http://www.w3.org/2000/svg">
<path fill-rule="evenodd" clip-rule="evenodd" d="M38.5001 0.391602C39.5895 0.391602 40.4727 1.2748 40.4727 2.36428V38.2358L76.5999 85.9393C77.052 86.5363 77.1271 87.3378 76.7938 88.0084C76.4604 88.6789 75.7762 89.1029 75.0273 89.1029H1.97269C1.22384 89.1029 0.53955 88.6789 0.206217 88.0084C-0.127116 87.3378 -0.0520119 86.5363 0.400097 85.9393L36.5274 38.2357V25.8217H1.97271C1.20336 25.8217 0.504206 25.3744 0.181708 24.6759C-0.140789 23.9775 -0.0277831 23.1552 0.471193 22.5696L8.51251 13.1324L0.471095 3.69364C-0.0278184 3.10803 -0.140773 2.28581 0.18174 1.58735C0.504253 0.888896 1.20339 0.441654 1.97271 0.441654H38.0566C38.1991 0.408904 38.3476 0.391602 38.5001 0.391602ZM71.0588 85.1576L38.5 42.1659L5.94121 85.1576H71.0588ZM12.6057 11.8532L6.24487 4.38702H36.5273V21.8763H6.2453L12.6056 14.4119C13.2338 13.6747 13.2339 12.5905 12.6057 11.8532Z" fill="url(#paint0_linear_41_3842)"/>
<defs>
<linearGradient id="paint0_linear_41_3842" x1="-23" y1="97" x2="64.9999" y2="44.9999" gradientUnits="userSpaceOnUse">
<stop stop-color="#ED5C2F"/>
<stop offset="0.510417" stop-color="#F28230"/>
<stop offset="1" stop-color="#FAB331"/>
</linearGradient>
</defs>
</svg>
