<svg width="75" height="83" viewBox="0 0 75 83" fill="none" xmlns="http://www.w3.org/2000/svg">
<path d="M56.6891 43.549C56.6891 55.0638 56.6894 66.5786 56.6889 78.0934C56.6887 81.3836 55.1055 82.9997 51.8824 82.9998C36.218 83.0002 20.5536 83.0002 4.88922 82.9998C1.70968 82.9997 0.0788853 81.3666 0.0787678 78.1772C0.0779089 55.0858 0.0779126 31.9944 0.0787678 8.90297C0.0788853 5.70973 1.70568 4.07973 4.88572 4.07885C7.08423 4.07823 9.28276 4.07291 11.4812 4.0814C12.5734 4.08561 13.2271 4.63155 13.251 5.52458C13.2759 6.45138 12.5976 7.04114 11.465 7.0454C9.26648 7.05365 7.06795 7.04677 4.86944 7.04834C3.37487 7.04941 3.01707 7.39959 3.017 8.87821C3.01597 32.0004 3.0159 55.1227 3.01726 78.2449C3.01735 79.6328 3.39791 80.0294 4.73222 80.0296C20.5187 80.0313 36.3053 80.0314 52.0918 80.0294C53.3446 80.0292 53.75 79.6305 53.7501 78.3874C53.7524 55.1417 53.7525 31.896 53.7497 8.65029C53.7495 7.46106 53.3346 7.05311 52.1445 7.04982C49.885 7.04357 47.6254 7.05271 45.3658 7.04581C44.2327 7.04235 43.541 6.45996 43.5521 5.54583C43.5631 4.63729 44.2512 4.08306 45.3988 4.08038C47.6889 4.07502 49.979 4.072 52.2691 4.08057C54.9509 4.0906 56.6851 5.83348 56.6864 8.54151C56.692 20.2107 56.6888 31.8798 56.6891 43.549Z" fill="url(#paint0_linear_116_3718)"/>
<path d="M74.073 37.7045C74.073 44.65 74.0819 51.5956 74.0579 58.541C74.0557 59.1704 73.9339 59.8349 73.7107 60.4221C72.3327 64.0462 70.904 67.6505 69.5065 71.267C69.2209 72.0061 68.8392 72.6146 67.9659 72.6148C67.0892 72.6149 66.712 71.994 66.4283 71.2606C65.0183 67.6159 63.5866 63.9796 62.1922 60.3289C61.9993 59.8241 61.8804 59.2552 61.8797 58.7158C61.863 44.7939 61.8568 30.872 61.8718 16.9502C61.877 12.0939 66.2644 9.01218 70.4556 10.9348C72.8956 12.0541 74.0585 14.0953 74.0661 16.7754C74.0857 23.7517 74.0727 30.7281 74.073 37.7045ZM71.0631 57.7766V22.296H64.8833V57.7766H71.0631ZM64.8423 19.192H71.1246C71.1246 18.1941 71.1737 17.27 71.1139 16.3531C71.0044 14.6729 69.6908 13.4019 68.0874 13.3483C66.42 13.2927 65.0241 14.4817 64.859 16.211C64.7664 17.1803 64.8423 18.1661 64.8423 19.192ZM70.4045 60.8359H65.5366C66.3483 62.9196 67.1246 64.9121 67.9691 67.08C68.8197 64.8993 69.6061 62.8829 70.4045 60.8359Z" fill="url(#paint1_linear_116_3718)"/>
<path d="M28.4063 11.1166C25.4472 11.1166 22.4881 11.1206 19.5289 11.1153C17.361 11.1113 16.1946 9.93181 16.1884 7.74654C16.1841 6.23529 16.1796 4.72396 16.1897 3.21276C16.2028 1.26083 17.4103 0.00971734 19.3154 0.00678552C25.3557 -0.00250726 31.396 -0.00183925 37.4363 0.00625482C39.3778 0.00885635 40.5619 1.21227 40.5781 3.18143C40.5914 4.81594 40.5984 6.45095 40.5742 8.08522C40.5477 9.87208 39.3383 11.0962 37.5583 11.1094C34.5078 11.1321 31.457 11.1157 28.4063 11.1166ZM19.1708 8.08417H37.5973V3.0195H19.1708V8.08417Z" fill="url(#paint2_linear_116_3718)"/>
<path d="M37.1319 31.1306C34.3544 31.1306 31.5768 31.1342 28.7992 31.1288C27.6187 31.1265 26.9854 30.6071 26.9767 29.6607C26.9678 28.7045 27.5991 28.1644 28.7685 28.1635C34.3847 28.1591 40.0008 28.159 45.617 28.1636C46.7601 28.1646 47.4138 28.7335 47.3965 29.6761C47.3797 30.5853 46.7469 31.1249 45.6477 31.1279C42.8091 31.1356 39.9705 31.1305 37.1319 31.1306Z" fill="url(#paint3_linear_116_3718)"/>
<path d="M37.2594 45.9446C40.0369 45.9446 42.8145 45.9408 45.592 45.9464C46.7472 45.9487 47.3997 46.496 47.3971 47.4334C47.3944 48.3687 46.7422 48.9111 45.5823 48.9119C39.9967 48.9158 34.411 48.9155 28.8254 48.9122C27.6296 48.9115 27.0001 48.411 26.9772 47.4697C26.9532 46.4829 27.5968 45.9478 28.8351 45.9459C31.6432 45.9416 34.4513 45.9446 37.2594 45.9446Z" fill="url(#paint4_linear_116_3718)"/>
<path d="M37.1666 66.6977C34.389 66.6977 31.6114 66.7008 28.8339 66.6962C27.5979 66.6942 26.9525 66.156 26.9772 65.1697C27.0009 64.2282 27.6289 63.7306 28.8267 63.73C34.4123 63.7268 39.998 63.7265 45.5836 63.7303C46.7431 63.7311 47.3948 64.273 47.3971 65.2088C47.3994 66.1457 46.7464 66.6934 45.5908 66.6958C42.7827 66.7015 39.9746 66.6976 37.1666 66.6977Z" fill="url(#paint5_linear_116_3718)"/>
<path d="M14.4149 49.0255C14.6807 48.7823 14.9044 48.594 15.1096 48.387C16.8799 46.6019 18.6451 44.8116 20.4156 43.0267C21.3112 42.1238 22.1133 42.0079 22.796 42.6697C23.4772 43.3301 23.3869 44.2079 22.5226 45.0851C20.2845 47.3564 18.0428 49.6241 15.795 51.8855C14.7988 52.8877 14.1417 52.8849 13.1497 51.8919C12.088 50.8291 11.0287 49.7638 9.98095 48.687C9.23637 47.9218 9.17368 47.0305 9.79238 46.4067C10.4355 45.7583 11.2561 45.8136 12.0437 46.5938C12.8057 47.3487 13.543 48.129 14.4149 49.0255Z" fill="url(#paint6_linear_116_3718)"/>
<path d="M14.4222 31.3094C16.4342 29.2722 18.327 27.3546 20.2211 25.4383C21.2988 24.3479 22.0703 24.1921 22.7948 24.9145C23.5015 25.6192 23.3408 26.4763 22.3004 27.5289C20.1445 29.7098 17.9905 31.8927 15.8295 34.0684C14.7883 35.1166 14.1516 35.1148 13.1178 34.0773C12.1005 33.0564 11.0867 32.032 10.0769 31.0034C9.22508 30.1356 9.12427 29.2442 9.79211 28.5904C10.4751 27.9219 11.2787 28.0284 12.1722 28.9385C12.9015 29.6814 13.6068 30.4482 14.4222 31.3094Z" fill="url(#paint7_linear_116_3718)"/>
<path d="M14.4697 66.9473C15.3541 66.0071 16.1185 65.1725 16.9069 64.3616C18.0409 63.1952 19.1913 62.045 20.3368 60.89C21.3043 59.9145 22.0767 59.784 22.7825 60.4712C23.4863 61.1565 23.3489 62.0354 22.3749 63.0216C20.2396 65.1835 18.1014 67.3426 15.9644 69.5028C15.8781 69.5901 15.7934 69.6792 15.7049 69.7641C14.8085 70.6242 14.1183 70.6384 13.2502 69.7764C12.1397 68.6736 11.0395 67.5597 9.94992 66.4357C9.24253 65.706 9.18555 64.8407 9.76784 64.2206C10.3954 63.5524 11.2487 63.5824 12.0191 64.3558C12.8172 65.157 13.5759 65.9984 14.4697 66.9473Z" fill="url(#paint8_linear_116_3718)"/>
<defs>
<linearGradient id="paint0_linear_116_3718" x1="0.0260475" y1="91.9937" x2="78.9183" y2="20.8629" gradientUnits="userSpaceOnUse">
<stop stop-color="#ED5C2F"/>
<stop offset="0.485" stop-color="#F28230"/>
<stop offset="1" stop-color="#FAB331"/>
</linearGradient>
<linearGradient id="paint1_linear_116_3718" x1="61.852" y1="79.7093" x2="90.9402" y2="72.5365" gradientUnits="userSpaceOnUse">
<stop stop-color="#ED5C2F"/>
<stop offset="0.485" stop-color="#F28230"/>
<stop offset="1" stop-color="#FAB331"/>
</linearGradient>
<linearGradient id="paint2_linear_116_3718" x1="16.1611" y1="12.3888" x2="23.3232" y2="-7.36796" gradientUnits="userSpaceOnUse">
<stop stop-color="#ED5C2F"/>
<stop offset="0.485" stop-color="#F28230"/>
<stop offset="1" stop-color="#FAB331"/>
</linearGradient>
<linearGradient id="paint3_linear_116_3718" x1="26.9578" y1="31.4708" x2="27.6403" y2="25.5764" gradientUnits="userSpaceOnUse">
<stop stop-color="#ED5C2F"/>
<stop offset="0.485" stop-color="#F28230"/>
<stop offset="1" stop-color="#FAB331"/>
</linearGradient>
<linearGradient id="paint4_linear_116_3718" x1="26.9578" y1="49.2533" x2="27.64" y2="43.3601" gradientUnits="userSpaceOnUse">
<stop stop-color="#ED5C2F"/>
<stop offset="0.485" stop-color="#F28230"/>
<stop offset="1" stop-color="#FAB331"/>
</linearGradient>
<linearGradient id="paint5_linear_116_3718" x1="26.9578" y1="67.0375" x2="27.64" y2="61.1443" gradientUnits="userSpaceOnUse">
<stop stop-color="#ED5C2F"/>
<stop offset="0.485" stop-color="#F28230"/>
<stop offset="1" stop-color="#FAB331"/>
</linearGradient>
<linearGradient id="paint6_linear_116_3718" x1="9.35833" y1="53.8207" x2="18.5386" y2="38.4082" gradientUnits="userSpaceOnUse">
<stop stop-color="#ED5C2F"/>
<stop offset="0.485" stop-color="#F28230"/>
<stop offset="1" stop-color="#FAB331"/>
</linearGradient>
<linearGradient id="paint7_linear_116_3718" x1="9.34271" y1="36.038" x2="18.5161" y2="20.6333" gradientUnits="userSpaceOnUse">
<stop stop-color="#ED5C2F"/>
<stop offset="0.485" stop-color="#F28230"/>
<stop offset="1" stop-color="#FAB331"/>
</linearGradient>
<linearGradient id="paint8_linear_116_3718" x1="9.35835" y1="71.5985" x2="18.5289" y2="56.208" gradientUnits="userSpaceOnUse">
<stop stop-color="#ED5C2F"/>
<stop offset="0.485" stop-color="#F28230"/>
<stop offset="1" stop-color="#FAB331"/>
</linearGradient>
</defs>
</svg>
