<svg width="76" height="93" viewBox="0 0 76 93" fill="none" xmlns="http://www.w3.org/2000/svg">
<g clip-path="url(#clip0_115_3698)">
<path d="M29.6438 71.3157H47.2185C47.2325 71.0045 47.2525 70.687 47.2601 70.3691C47.3078 68.3739 47.2247 66.3654 47.4308 64.3865C47.6905 61.8928 49.0308 59.9418 51.0162 58.3908C52.904 56.9159 54.8827 55.5152 56.5648 53.83C60.1442 50.2439 62.1678 45.8231 62.9826 40.8525C63.0071 40.7032 63.0212 40.5518 63.0549 40.4047C63.2827 39.4094 63.864 38.9226 64.6724 39.0449C65.4813 39.1673 65.9064 39.8232 65.7597 40.8344C64.9891 46.1453 62.9561 50.9294 59.2983 54.896C57.6051 56.7321 55.6673 58.4078 53.6175 59.8432C51.1115 61.5979 49.8455 63.7713 50.0035 66.8057C50.0727 68.134 50.0334 69.4692 50.0059 70.8006C49.9956 71.3022 50.1152 71.6188 50.6003 71.8803C51.757 72.5037 52.3951 73.5132 52.3974 74.8289C52.3998 76.1731 52.6651 77.5641 51.8392 78.8054C51.7638 78.9187 51.7869 79.1707 51.8645 79.2985C52.7361 80.7346 52.4705 82.3074 52.3271 83.8192C52.1794 85.3766 50.7271 86.5797 49.099 86.6421C47.6139 86.699 46.1248 86.6542 44.5247 86.6542C44.5247 87.6737 44.5326 88.5721 44.5231 89.4704C44.4997 91.6857 43.217 92.9737 41.0054 92.9892C39.2658 93.0013 37.5259 93.0073 35.7865 92.9871C33.7355 92.9633 32.4252 91.6666 32.3803 89.6319C32.3596 88.6973 32.3768 87.7618 32.3768 86.6771C31.0458 86.6771 29.7742 86.7294 28.5098 86.6572C27.7677 86.6148 26.9806 86.4966 26.3144 86.1943C25.2893 85.7293 24.6254 84.8183 24.5581 83.7032C24.4683 82.2159 24.1875 80.6808 25.0397 79.2664C25.1454 79.0908 24.9715 78.723 24.8792 78.461C24.2865 76.7789 24.2144 75.0676 24.8902 73.4269C25.1439 72.8111 25.8522 72.3888 26.3105 71.8429C26.5512 71.5562 26.8505 71.1989 26.8637 70.8634C26.9231 69.3522 26.8568 67.8365 26.8968 66.324C26.9696 63.5688 25.8399 61.521 23.4811 60.0344C19.2663 57.378 15.9717 53.8248 13.8214 49.3602C9.36266 40.1026 9.78568 30.9881 15.3246 22.3121C19.7365 15.4015 26.2102 11.3813 34.3491 10.0204C34.5294 9.99021 34.7117 9.96746 34.8941 9.95401C35.8492 9.88353 36.4764 10.2986 36.5967 11.076C36.7111 11.815 36.1972 12.4426 35.279 12.643C34.1193 12.8962 32.9283 13.0411 31.7965 13.3821C22.6084 16.1504 16.6755 22.16 14.3407 31.3687C11.7615 41.5411 15.9642 51.8782 24.809 57.6201C28.1613 59.7964 29.7867 62.7197 29.6523 66.6678C29.6001 68.2008 29.6438 69.7371 29.6438 71.3157ZM38.4816 74.0924C35.3999 74.0924 32.3183 74.0923 29.2366 74.0924C27.9045 74.0924 27.2399 74.7663 27.243 76.1143C27.2463 77.5303 27.3844 77.6713 28.8121 77.6717C35.0059 77.6732 41.1997 77.6724 47.3936 77.6724C48.9301 77.6724 49.6861 76.8999 49.6615 75.3551C49.6441 74.2672 49.4778 74.0958 48.3673 74.0941C45.0721 74.0893 41.7768 74.0924 38.4816 74.0924ZM38.3596 83.9445C41.4397 83.9445 44.5197 83.9445 47.5997 83.9445C48.9785 83.9445 49.6659 83.2644 49.6618 81.9042C49.6577 80.5055 49.5625 80.4072 48.1512 80.4069C41.9302 80.4053 35.7092 80.4062 29.4881 80.4062C27.9753 80.4062 27.227 81.1466 27.2431 82.6275C27.2557 83.7845 27.4038 83.9407 28.5706 83.9426C31.8336 83.9477 35.0966 83.9444 38.3596 83.9445ZM41.7727 86.7404H35.1399C35.1399 87.7358 35.0939 88.6728 35.1717 89.5997C35.1915 89.8361 35.5981 90.2224 35.8368 90.2299C37.5725 90.2844 39.3118 90.2885 41.0471 90.2277C41.2969 90.2189 41.714 89.7938 41.7394 89.5314C41.8262 88.6352 41.7727 87.7256 41.7727 86.7404Z" fill="url(#paint0_linear_115_3698)"/>
<path d="M42.8482 23.3445C43.5303 23.632 44.1601 23.9405 44.8216 24.151C45.0309 24.2176 45.3928 24.095 45.5683 23.9341C46.3294 23.236 47.0412 22.4854 47.7825 21.7656C48.9874 20.5954 49.996 20.5864 51.1841 21.7424C52.1425 22.6748 53.0915 23.617 54.0321 24.5671C55.2014 25.7483 55.1888 26.7339 53.9995 27.9327C53.3147 28.623 52.6457 29.3322 51.9192 29.9769C51.4714 30.3743 51.5614 30.6992 51.698 31.2219C52.0606 32.61 52.858 33.0794 54.2528 32.8609C54.967 32.7489 55.7153 32.8196 56.4463 32.8509C57.6502 32.9024 58.4024 33.5978 58.4368 34.78C58.4834 36.3824 58.4851 37.9882 58.438 39.5906C58.4016 40.8283 57.6175 41.5182 56.2776 41.5588C55.2106 41.5912 54.1414 41.5855 53.0741 41.5581C52.5899 41.5457 52.3212 41.653 52.1288 42.1612C51.4671 43.9089 51.4392 43.8983 52.7806 45.2293C53.2767 45.7216 53.7957 46.1938 54.2619 46.7126C55.0979 47.6429 55.1293 48.6587 54.2802 49.5575C53.196 50.7051 52.0722 51.8198 50.9125 52.8924C50.0102 53.7269 48.9619 53.6957 48.0489 52.8581C47.2655 52.1394 46.5023 51.3939 45.787 50.6093C45.3726 50.1548 45.0367 50.1731 44.4533 50.3252C43.0307 50.6962 42.6285 51.5311 42.8324 52.8818C42.9307 53.5329 42.8648 54.2113 42.8454 54.8765C42.805 56.2601 42.0645 57.0088 40.679 57.0301C39.1842 57.053 37.6884 57.0545 36.1938 57.0289C34.8547 57.0059 34.0998 56.2639 34.0613 54.9375C34.0297 53.8489 34.0253 52.7577 34.0658 51.6697C34.0847 51.1592 33.8562 50.991 33.4393 50.7409C32.142 49.9627 31.1755 50.1819 30.3133 51.4002C29.9335 51.9369 29.3946 52.3687 28.9009 52.819C27.9125 53.7206 26.8787 53.7353 25.8986 52.8129C24.8145 51.7925 23.7587 50.7406 22.7261 49.6688C21.7553 48.6611 21.761 47.6451 22.7276 46.6243C23.4792 45.8305 24.2598 45.0618 25.0588 44.3149C25.4003 43.9956 25.4499 43.7326 25.255 43.3C24.4776 41.5742 24.4945 41.5668 22.6057 41.5667C21.965 41.5667 21.3237 41.5827 20.6835 41.5627C19.2236 41.517 18.4757 40.8001 18.4504 39.3767C18.4241 37.8943 18.4203 36.4105 18.4539 34.9284C18.4844 33.5859 19.2228 32.8776 20.5808 32.8473C21.6482 32.8235 22.7174 32.8169 23.7842 32.8513C24.3126 32.8684 24.5169 32.6606 24.7959 32.2061C25.5971 30.9013 25.3182 29.9704 24.1199 29.1148C23.5579 28.7135 23.096 28.1637 22.6281 27.6462C21.8171 26.7492 21.7713 25.7396 22.5833 24.877C23.6862 23.7054 24.8301 22.5675 26.0135 21.4759C26.9497 20.6123 27.9605 20.6801 28.9454 21.6004C29.7446 22.3471 30.5228 23.1184 31.2723 23.9139C31.5977 24.2594 31.8597 24.2242 32.2943 24.1156C33.7743 23.7455 34.3364 22.901 34.0737 21.402C33.9553 20.7267 34.0253 20.0117 34.0659 19.3179C34.1334 18.1643 34.7914 17.4267 35.9527 17.3756C37.5965 17.3033 39.248 17.3007 40.8921 17.3679C42.1391 17.4188 42.811 18.182 42.8412 19.4411C42.8724 20.74 42.8482 22.0401 42.8482 23.3445ZM40.0972 54.2614C40.0972 52.9216 40.1281 51.6268 40.087 50.3343C40.0561 49.3624 40.5038 48.8316 41.4008 48.5225C42.3754 48.1867 43.3375 47.8031 44.2735 47.3729C45.5053 46.8069 45.8402 46.8225 46.7776 47.7599C47.6711 48.6535 48.547 49.5645 49.3799 50.416C50.2461 49.5831 50.9841 48.8734 51.8587 48.0324C51.0271 47.2592 50.1919 46.5113 49.3895 45.7303C48.0684 44.4442 48.0669 44.287 48.869 42.6776C49.2049 42.0035 49.4996 41.3029 49.7416 40.5905C50.3094 38.9195 50.4009 38.8358 52.2148 38.8352C53.3602 38.8349 54.5056 38.8352 55.6413 38.8352V35.5719C54.2721 35.5719 52.9654 35.5624 51.6588 35.5752C50.7443 35.5841 50.2019 35.18 49.898 34.3065C49.532 33.2546 49.1048 32.2161 48.6085 31.2186C48.175 30.3472 48.2998 29.673 48.9988 29.0263C49.9571 28.1395 50.8884 27.224 51.7872 26.3629C50.9735 25.5237 50.2402 24.7672 49.4106 23.9116C48.4899 24.8607 47.5735 25.7887 46.6771 26.7353C46.028 27.4207 45.3521 27.5614 44.4693 27.1153C43.4974 26.6243 42.4783 26.2037 41.4423 25.8654C40.4824 25.5519 40.0552 24.9992 40.0871 23.9987C40.1282 22.7086 40.0971 21.4163 40.0971 20.1214H36.8056C36.8056 21.4397 36.8093 22.7045 36.8045 23.9693C36.7999 25.1631 36.5515 25.4572 35.4008 25.8793C34.4327 26.2345 33.4748 26.6247 32.5378 27.0538C31.4067 27.5719 31.0609 27.5528 30.1876 26.6868C29.2674 25.7744 28.3668 24.8425 27.6 24.0638C26.7223 24.8749 25.9541 25.5848 25.1348 26.342C26.0711 27.2524 26.9974 28.1733 27.9472 29.0698C28.6145 29.6996 28.7171 30.3604 28.3064 31.1914C27.8393 32.1363 27.4385 33.118 27.0743 34.1073C26.6321 35.3084 26.3171 35.5671 24.9992 35.5715C23.7582 35.5756 22.5173 35.5724 21.2485 35.5724V38.8358C22.6307 38.8358 23.9652 38.8565 25.2987 38.8286C26.1967 38.8097 26.6966 39.2164 26.9891 40.0427C27.3408 41.0366 27.744 42.0166 28.1917 42.9719C28.7595 44.1834 28.7401 44.514 27.7951 45.4543C26.8979 46.3471 25.9899 47.2293 25.1642 48.0399C25.9684 48.884 26.6757 49.6265 27.477 50.4676C28.3885 49.5341 29.2687 48.6157 30.1683 47.7163C31.037 46.8478 31.4144 46.8198 32.5185 47.3229C33.4564 47.7501 34.4141 48.141 35.3839 48.491C36.5558 48.9139 36.8017 49.214 36.8049 50.4853C36.8081 51.7442 36.8056 53.003 36.8056 54.2614H40.0972Z" fill="url(#paint1_linear_115_3698)"/>
<path d="M41.9105 9.933C45.0433 10.3006 48.105 11.1961 50.9578 12.694C58.6224 16.7184 63.458 22.9309 65.4171 31.3216C65.5816 32.0263 65.6769 32.7481 65.7813 33.4653C65.9348 34.5206 65.5396 35.193 64.7005 35.3475C63.9074 35.4935 63.3081 34.9413 63.0705 33.891C62.7112 32.3024 62.4889 30.6615 61.9329 29.142C58.5509 19.8985 51.895 14.4741 42.1647 12.718C41.9254 12.6748 41.6806 12.6505 41.4476 12.5851C40.6486 12.3609 40.2003 11.7549 40.3091 11.0702C40.4236 10.3495 41.0007 9.91785 41.9105 9.933Z" fill="url(#paint2_linear_115_3698)"/>
<path d="M39.8182 3.60933C39.8182 4.3334 39.8522 5.05946 39.8094 5.78103C39.7572 6.66199 39.2186 7.20786 38.4741 7.22249C37.7404 7.23691 37.1288 6.68084 37.1018 5.82646C37.0551 4.34973 37.0543 2.86945 37.1012 1.39275C37.1284 0.535727 37.7355 -0.0134028 38.4738 0.00024882C39.219 0.0140277 39.7293 0.559128 39.8179 1.43713C39.8239 1.49709 39.8273 1.55757 39.8273 1.61782C39.828 2.28165 39.8277 2.94548 39.8277 3.60931C39.8245 3.60931 39.8214 3.60933 39.8182 3.60933Z" fill="url(#paint3_linear_115_3698)"/>
<path d="M4.62818 38.5311C3.86722 38.5311 3.10589 38.5458 2.3454 38.5272C1.51305 38.5067 1.05019 38.0346 0.960325 37.243C0.882843 36.5604 1.43887 35.8906 2.23563 35.8589C3.81435 35.796 5.3998 35.7956 6.97801 35.8667C7.78345 35.903 8.29679 36.5609 8.22045 37.2681C8.13299 38.0781 7.63696 38.5064 6.81968 38.5288C6.0897 38.5488 5.35873 38.533 4.62818 38.5311Z" fill="url(#paint4_linear_115_3698)"/>
<path d="M72.3249 38.5292C71.5642 38.5292 70.802 38.5582 70.0431 38.5213C69.234 38.4819 68.6767 37.9409 68.6837 37.2245C68.6912 36.4491 69.1231 35.9092 69.8833 35.877C71.4909 35.809 73.1056 35.8034 74.713 35.8722C75.5049 35.9061 76.0418 36.6046 75.9425 37.2866C75.8272 38.0789 75.3421 38.5196 74.516 38.5315C73.7858 38.542 73.0553 38.5337 72.3249 38.5337L72.3249 38.5292Z" fill="url(#paint5_linear_115_3698)"/>
<path d="M12.8164 10.3154C13.319 10.6182 13.7214 10.7769 14.0129 11.0514C15.0055 11.986 15.9707 12.9503 16.9237 13.925C17.6099 14.6269 17.6453 15.4462 17.0612 16.0075C16.5102 16.5369 15.6834 16.5094 15.024 15.8784C13.9952 14.8938 12.9419 13.9239 12.019 12.8466C11.7127 12.4891 11.6024 11.7756 11.7247 11.3076C11.8245 10.9257 12.4042 10.6673 12.8164 10.3154Z" fill="url(#paint6_linear_115_3698)"/>
<path d="M65.5517 11.7471C65.257 12.2437 65.1043 12.65 64.8276 12.9398C63.8868 13.9256 62.9129 14.8812 61.9308 15.8271C61.2284 16.5036 60.3928 16.5525 59.8288 15.995C59.2564 15.4292 59.3015 14.6139 59.9919 13.9122C60.9904 12.8974 61.9708 11.8565 63.0541 10.9371C63.3948 10.648 64.0941 10.5385 64.5324 10.6684C64.9285 10.7858 65.1923 11.3422 65.5517 11.7471Z" fill="url(#paint7_linear_115_3698)"/>
<path d="M16.2469 57.8857C16.5655 58.1261 17.1036 58.3342 17.2566 58.7005C17.4249 59.1032 17.43 59.8183 17.1738 60.1074C16.0919 61.3277 14.9128 62.4683 13.7136 63.5789C13.1778 64.0752 12.5075 63.9939 11.9781 63.4974C11.4854 63.0354 11.2909 62.3768 11.7599 61.8673C12.9264 60.6 14.1788 59.4097 15.4178 58.2099C15.5758 58.0569 15.8593 58.0313 16.2469 57.8857Z" fill="url(#paint8_linear_115_3698)"/>
<path d="M60.6804 57.8242C61.1501 58.0828 61.5437 58.2094 61.8141 58.4644C62.8506 59.4418 63.8632 60.4454 64.8538 61.4687C65.5174 62.1542 65.5313 62.91 64.9616 63.479C64.3912 64.0486 63.6222 64.0417 62.9302 63.385C61.8969 62.4043 60.8465 61.4307 59.9214 60.3543C59.6088 59.9904 59.4755 59.2792 59.5931 58.8087C59.689 58.425 60.281 58.1632 60.6804 57.8242Z" fill="url(#paint9_linear_115_3698)"/>
<path d="M38.418 29.9162C42.4493 29.8912 45.7608 33.133 45.7924 37.1353C45.8241 41.1547 42.4787 44.498 38.4373 44.4856C34.4196 44.4734 31.1189 41.1916 31.1094 37.1998C31.0999 33.2008 34.3707 29.9412 38.418 29.9162ZM33.8627 37.1926C33.8649 39.6968 35.9383 41.7577 38.4535 41.7555C40.9689 41.7534 43.0388 39.6907 43.0383 37.1866C43.0378 34.6687 40.9922 32.6463 38.4475 32.6478C35.9037 32.6493 33.8606 34.6746 33.8627 37.1926Z" fill="url(#paint10_linear_115_3698)"/>
</g>
<defs>
<linearGradient id="paint0_linear_115_3698" x1="17.1387" y1="86.7725" x2="80.0829" y2="33.5359" gradientUnits="userSpaceOnUse">
<stop stop-color="#ED5C2F"/>
<stop offset="0.48" stop-color="#F28230"/>
<stop offset="1" stop-color="#FAB331"/>
</linearGradient>
<linearGradient id="paint1_linear_115_3698" x1="23.0526" y1="54.0687" x2="52.6364" y2="15.9852" gradientUnits="userSpaceOnUse">
<stop stop-color="#ED5C2F"/>
<stop offset="0.48" stop-color="#F28230"/>
<stop offset="1" stop-color="#FAB331"/>
</linearGradient>
<linearGradient id="paint2_linear_115_3698" x1="43.2394" y1="33.4632" x2="62.2034" y2="9.16352" gradientUnits="userSpaceOnUse">
<stop stop-color="#ED5C2F"/>
<stop offset="0.48" stop-color="#F28230"/>
<stop offset="1" stop-color="#FAB331"/>
</linearGradient>
<linearGradient id="paint3_linear_115_3698" x1="37.3856" y1="6.68117" x2="41.766" y2="4.53973" gradientUnits="userSpaceOnUse">
<stop stop-color="#ED5C2F"/>
<stop offset="0.48" stop-color="#F28230"/>
<stop offset="1" stop-color="#FAB331"/>
</linearGradient>
<linearGradient id="paint4_linear_115_3698" x1="1.793" y1="38.3344" x2="2.92513" y2="34.4761" gradientUnits="userSpaceOnUse">
<stop stop-color="#ED5C2F"/>
<stop offset="0.48" stop-color="#F28230"/>
<stop offset="1" stop-color="#FAB331"/>
</linearGradient>
<linearGradient id="paint5_linear_115_3698" x1="69.523" y1="38.3363" x2="70.6484" y2="34.4897" gradientUnits="userSpaceOnUse">
<stop stop-color="#ED5C2F"/>
<stop offset="0.48" stop-color="#F28230"/>
<stop offset="1" stop-color="#FAB331"/>
</linearGradient>
<linearGradient id="paint6_linear_115_3698" x1="12.3448" y1="15.9253" x2="16.9147" y2="10.348" gradientUnits="userSpaceOnUse">
<stop stop-color="#ED5C2F"/>
<stop offset="0.48" stop-color="#F28230"/>
<stop offset="1" stop-color="#FAB331"/>
</linearGradient>
<linearGradient id="paint7_linear_115_3698" x1="60.1399" y1="15.9452" x2="64.3714" y2="10.2078" gradientUnits="userSpaceOnUse">
<stop stop-color="#ED5C2F"/>
<stop offset="0.48" stop-color="#F28230"/>
<stop offset="1" stop-color="#FAB331"/>
</linearGradient>
<linearGradient id="paint8_linear_115_3698" x1="12.1714" y1="63.461" x2="16.6931" y2="57.8236" gradientUnits="userSpaceOnUse">
<stop stop-color="#ED5C2F"/>
<stop offset="0.48" stop-color="#F28230"/>
<stop offset="1" stop-color="#FAB331"/>
</linearGradient>
<linearGradient id="paint9_linear_115_3698" x1="60.2228" y1="63.4376" x2="64.7921" y2="57.8401" gradientUnits="userSpaceOnUse">
<stop stop-color="#ED5C2F"/>
<stop offset="0.48" stop-color="#F28230"/>
<stop offset="1" stop-color="#FAB331"/>
</linearGradient>
<linearGradient id="paint10_linear_115_3698" x1="32.8046" y1="43.3931" x2="43.6542" y2="29.428" gradientUnits="userSpaceOnUse">
<stop stop-color="#ED5C2F"/>
<stop offset="0.48" stop-color="#F28230"/>
<stop offset="1" stop-color="#FAB331"/>
</linearGradient>
<clipPath id="clip0_115_3698">
<rect width="75" height="93" fill="white" transform="translate(0.953125)"/>
</clipPath>
</defs>
</svg>
