<svg width="84" height="83" viewBox="0 0 84 83" fill="none" xmlns="http://www.w3.org/2000/svg">
<g clip-path="url(#clip0_116_3712)">
<path d="M78.5452 79.752C79.467 79.752 80.2755 79.743 81.0838 79.7541C82.2516 79.7702 83.0106 80.4267 82.9982 81.392C82.9859 82.3553 82.2301 82.9786 81.0497 82.9977C80.8877 83.0003 80.7256 82.9982 80.5635 82.9982C54.5253 82.9982 28.4871 82.9982 2.44888 82.9982C2.25981 82.9982 2.07062 83.0022 1.88168 82.9971C0.766649 82.9672 0.0266115 82.329 0.0157434 81.3904C0.00486078 80.4505 0.745058 79.7789 1.85083 79.7559C2.68587 79.7384 3.52158 79.7524 4.46873 79.7524C4.46873 79.4149 4.46871 79.1269 4.46873 78.8388C4.46888 76.8674 4.4613 74.8959 4.47187 72.9245C4.47903 71.5905 4.83698 71.1394 6.11695 70.817C8.26112 70.277 10.4043 69.7324 12.555 69.2195C13.0503 69.1014 13.3205 68.8697 13.5108 68.3862C14.2016 66.6303 14.9275 64.8873 15.6835 63.1584C15.8944 62.676 15.8315 62.3246 15.5671 61.8954C14.4068 60.0116 13.2747 58.1104 12.142 56.2097C11.4821 55.1024 11.5502 54.5229 12.4504 53.6179C14.3552 51.7031 16.2653 49.7936 18.1799 47.8887C19.0814 46.9917 19.6867 46.9149 20.7768 47.5646C22.7007 48.7112 24.6218 49.8627 26.5316 51.0325C26.9373 51.281 27.2686 51.3091 27.7221 51.1115C29.4768 50.3468 31.2653 49.6597 33.0162 48.887C33.3231 48.7515 33.6423 48.3793 33.73 48.0552C34.3078 45.9217 34.8227 43.7713 35.3601 41.6268C35.6998 40.2714 36.1808 39.8913 37.5779 39.8894C40.1979 39.8858 42.8179 39.8858 45.438 39.8894C46.8338 39.8913 47.3142 40.2717 47.6542 41.6285C48.1916 43.773 48.7066 45.9235 49.2845 48.0569C49.3722 48.3807 49.6923 48.7523 49.9993 48.8877C51.7503 49.6603 53.539 50.3471 55.2935 51.1122C55.7481 51.3105 56.0788 51.2792 56.4838 51.0315C58.3714 49.877 60.2715 48.7429 62.1713 47.6086C63.3504 46.9045 63.9193 46.9761 64.8929 47.9467C66.7674 49.8154 68.6393 51.6867 70.5078 53.5613C71.4791 54.5358 71.5461 55.0947 70.8345 56.2834C69.7121 58.1588 68.5943 60.0372 67.446 61.8967C67.1806 62.3265 67.1207 62.678 67.3313 63.1598C68.087 64.8888 68.8133 66.6316 69.5036 68.3878C69.6941 68.8725 69.9664 69.1017 70.4606 69.2196C72.6112 69.733 74.7544 70.2774 76.8986 70.8174C78.1773 71.1395 78.535 71.5911 78.5422 72.9261C78.5527 74.8705 78.5451 76.815 78.5452 78.7594C78.5453 79.0526 78.5452 79.3457 78.5452 79.752ZM55.4449 79.7237C56.1891 75.137 55.184 71.096 52.177 67.5888C50.6692 65.8302 48.8043 64.5919 46.6849 63.686C45.6846 63.2584 45.3247 62.3725 45.6851 61.524C46.0522 60.66 46.9342 60.337 47.9246 60.704C54.1021 62.993 58.7403 69.4818 58.9116 76.0972C58.9426 77.2957 58.916 78.4956 58.916 79.6881H75.2929C75.2929 77.8975 75.2748 76.17 75.3037 74.4432C75.3127 73.912 75.1361 73.6973 74.6123 73.5764C72.668 73.1276 70.745 72.5846 68.7964 72.1566C67.7927 71.9362 67.2073 71.4093 66.8353 70.4621C65.9188 68.1282 64.9573 65.8109 63.9615 63.5096C63.5796 62.6272 63.6438 61.8831 64.1517 61.0724C65.3381 59.1785 66.4649 57.2472 67.6416 55.2883C66.2259 53.8714 64.8471 52.467 63.4256 51.1072C63.2861 50.9738 62.8282 51.0179 62.6132 51.143C60.7938 52.2014 58.988 53.2841 57.1969 54.39C56.5173 54.8096 55.873 54.8756 55.1301 54.5605C52.6722 53.5183 50.2051 52.4973 47.7301 51.4963C46.9564 51.1834 46.538 50.6658 46.3467 49.8541C45.8222 47.6282 45.2444 45.4149 44.6843 43.1832H38.3294C37.7679 45.4188 37.1875 47.6076 36.6795 49.8131C36.4757 50.6981 35.9991 51.2138 35.1748 51.5445C32.8222 52.4883 30.4733 53.4441 28.1519 54.4615C27.2094 54.8745 26.4308 54.7978 25.5706 54.2534C23.7046 53.0726 21.7926 51.9646 20.0059 50.8908C18.4568 52.4371 16.9731 53.9182 15.4564 55.4321C16.5791 57.2982 17.7298 59.25 18.9234 61.1751C19.379 61.9098 19.4332 62.6056 19.098 63.3957C18.087 65.7787 17.0784 68.1636 16.1279 70.571C15.7711 71.4747 15.1842 71.9343 14.2577 72.1449C12.2857 72.5931 10.3327 73.1242 8.36366 73.5862C7.88142 73.6994 7.68901 73.896 7.71086 74.4018C7.74814 75.2645 7.72089 76.13 7.72083 76.9943C7.72077 77.8978 7.72082 78.8013 7.72082 79.7136H24.2495C24.1835 78.9265 24.0714 78.1811 24.0662 77.4349C24.0274 71.8751 26.0234 67.1794 30.308 63.615C31.7364 62.4268 33.4787 61.596 35.1355 60.7101C36.0524 60.2198 37.0254 60.639 37.3867 61.4716C37.7557 62.3216 37.3776 63.176 36.4148 63.6636C36.2946 63.7244 36.171 63.7793 36.0465 63.8309C33.2642 64.9843 31.0712 66.8488 29.4877 69.3971C27.5123 72.5761 26.8919 76.0184 27.5978 79.7237L55.4449 79.7237Z" fill="url(#paint0_linear_116_3712)"/>
<path d="M40.0371 29.2283C46.9009 22.3657 53.6613 15.6064 60.6491 8.61968C60.426 8.49404 60.1192 8.39603 59.9146 8.19432C58.164 6.4682 56.4333 4.72194 54.6936 2.98477C54.1386 2.43059 53.8143 1.81341 54.1516 1.02229C54.4817 0.24807 55.1153 -0.000548417 55.9153 9.07927e-07C64.2912 0.00578156 72.667 0.000626629 81.0429 0.0065055C82.4083 0.00746227 83.0076 0.621655 83.0084 2.00864C83.0131 10.3562 83.0078 18.7037 83.0155 27.0512C83.0162 27.8463 82.8003 28.5045 82.0326 28.842C81.2207 29.1989 80.5699 28.8594 79.9961 28.2827C78.0917 26.3685 76.1855 24.4561 74.2303 22.4932C73.9842 22.7203 73.7689 22.9056 73.5685 23.1058C68.4661 28.2048 63.366 33.3061 58.2616 38.4031C57.9956 38.6687 57.7183 38.9364 57.4043 39.1376C56.768 39.5454 55.9978 39.439 55.4708 38.9207C54.9474 38.4059 54.8221 37.6238 55.2149 36.9919C55.4116 36.6756 55.6795 36.3968 55.9451 36.1309C61.0235 31.0462 66.106 25.9655 71.19 20.8863C71.3993 20.6771 71.6317 20.491 71.772 20.3665C68.7266 17.3222 65.7388 14.3354 62.8082 11.4059C56.1524 18.0563 49.3758 24.8273 42.5269 31.6707C43.2079 32.3418 43.996 33.073 44.725 33.8589C45.0233 34.1806 45.2861 34.5952 45.4014 35.0127C45.5829 35.6702 45.3049 36.2334 44.7237 36.6065C44.1767 36.9576 43.5943 36.9734 43.0469 36.6299C42.7315 36.4319 42.4533 36.1643 42.1876 35.8989C35.0782 28.7952 27.9715 21.6887 20.8708 14.5761C20.6453 14.3503 20.489 14.0554 20.2702 13.7507C19.8945 14.1047 19.6775 14.299 19.4718 14.5046C14.0636 19.9091 8.65678 25.3151 3.24909 30.7201C2.21109 31.7576 1.25894 31.9189 0.509984 31.1888C-0.2671 30.4312 -0.12866 29.5144 0.929553 28.4558C6.79335 22.5899 12.6577 16.7246 18.523 10.8601C19.7612 9.62202 20.5021 9.61861 21.7316 10.8475C27.6351 16.7482 33.5375 22.6499 39.438 28.5536C39.6471 28.7628 39.8321 28.9962 40.0371 29.2283ZM59.9282 3.29412C66.5077 9.87402 73.1447 16.5113 79.7045 23.0715V3.29412H59.9282Z" fill="url(#paint1_linear_116_3712)"/>
<path d="M22.3504 34.15C24.7502 36.5492 27.0022 38.8007 29.2544 41.0522C29.751 41.5487 30.2486 42.0443 30.7445 42.5415C31.7733 43.5732 31.9362 44.5369 31.2092 45.2822C30.4738 46.036 29.4915 45.891 28.4696 44.8703C25.9278 42.3316 23.3868 39.7923 20.8504 37.2483C20.6414 37.0387 20.4695 36.7922 20.2151 36.4837C19.9006 36.7827 19.6712 36.9916 19.452 37.2107C14.0641 42.5948 8.67816 47.9807 3.28787 53.3624C3.02201 53.6278 2.74414 53.8948 2.42987 54.0953C1.81339 54.4885 1.00124 54.3703 0.494078 53.8631C-0.0219792 53.347 -0.13352 52.5635 0.258651 51.928C0.426344 51.6562 0.653886 51.4153 0.881472 51.1875C8.02232 44.0421 15.1665 36.9 22.3107 29.758C22.4634 29.6054 22.6134 29.4479 22.7809 29.3127C23.5391 28.7006 24.4389 28.7208 25.049 29.3551C25.6198 29.9485 25.6528 30.8762 25.0619 31.5637C24.5879 32.1153 24.0542 32.6174 23.5289 33.1227C23.1803 33.4582 22.7998 33.7606 22.3504 34.15Z" fill="url(#paint2_linear_116_3712)"/>
</g>
<defs>
<linearGradient id="paint0_linear_116_3712" x1="4.38129" y1="83.4593" x2="44.8826" y2="13.6109" gradientUnits="userSpaceOnUse">
<stop stop-color="#ED5C2F"/>
<stop offset="0.485" stop-color="#F28230"/>
<stop offset="1" stop-color="#FAB331"/>
</linearGradient>
<linearGradient id="paint1_linear_116_3712" x1="4.3822" y1="39.8069" x2="39.6491" y2="-26.7817" gradientUnits="userSpaceOnUse">
<stop stop-color="#ED5C2F"/>
<stop offset="0.485" stop-color="#F28230"/>
<stop offset="1" stop-color="#FAB331"/>
</linearGradient>
<linearGradient id="paint2_linear_116_3712" x1="1.68762" y1="54.601" x2="29.0923" y2="24.0971" gradientUnits="userSpaceOnUse">
<stop stop-color="#ED5C2F"/>
<stop offset="0.485" stop-color="#F28230"/>
<stop offset="1" stop-color="#FAB331"/>
</linearGradient>
<clipPath id="clip0_116_3712">
<rect width="83" height="83" fill="white" transform="translate(0.015625)"/>
</clipPath>
</defs>
</svg>
