<svg width="93" height="89" viewBox="0 0 93 89" fill="none" xmlns="http://www.w3.org/2000/svg">
<path d="M48.2326 50.9437H54.6817C54.7048 50.5626 54.7411 50.2322 54.7421 49.9017C54.748 48.0819 54.7354 46.2619 54.7484 44.4422C54.7587 43.0106 55.201 42.5438 56.6252 42.4008C59.5485 42.1072 61.7563 40.2331 62.2728 37.6068C62.9891 33.9641 60.5283 30.6975 56.7833 30.3199C55.1389 30.1542 54.7506 29.7436 54.7469 28.1174C54.7404 25.2331 54.7386 22.3488 54.7479 19.4645C54.7529 17.9162 55.3154 17.3413 56.8704 17.3401C66.382 17.3325 75.8937 17.3115 85.4052 17.3478C89.9182 17.365 92.9929 20.5028 92.9944 24.9908C93.0006 43.7731 93.0005 62.5554 92.9944 81.3377C92.993 85.8842 89.8818 88.9925 85.319 88.9943C66.0536 89.0021 46.7883 89.0014 27.523 88.995C22.8989 88.9935 19.7805 85.8992 19.7736 81.2926C19.7595 71.953 19.7677 62.6133 19.7709 53.2737C19.7715 51.5265 20.2969 51.0087 22.0668 51.0028C24.315 50.9953 26.5633 50.987 28.8113 51.0103C29.3608 51.016 29.6563 50.9042 29.837 50.3094C31.1585 45.9578 34.6864 43.2682 38.9662 43.2904C43.2478 43.3125 46.783 46.0759 48.0504 50.39C48.0983 50.5532 48.1565 50.7135 48.2326 50.9437ZM54.6804 85.6941V79.2287C54.2882 79.1148 53.9249 79.0164 53.566 78.9039C49.7237 77.6994 47.0925 74.2222 46.9678 70.1878C46.8501 66.3758 49.2913 62.7268 52.9026 61.3172C54.1308 60.8378 54.7449 59.92 54.7449 58.5636V54.3079C52.0792 54.3079 49.593 54.3206 47.1071 54.3031C45.6263 54.2927 45.1453 53.823 45.0098 52.3534C44.703 49.0278 42.1611 46.6196 38.9428 46.6053C35.6992 46.591 33.1113 49.05 32.8306 52.4132C32.7152 53.7957 32.2072 54.2846 30.781 54.3026C29.0863 54.324 27.3911 54.3083 25.6961 54.3086C24.8737 54.3088 24.0513 54.3087 23.098 54.3087V55.5301C23.098 64.0467 23.0958 72.5633 23.0991 81.08C23.1003 84.1474 24.6673 85.693 27.7666 85.6935C36.3454 85.6951 44.9242 85.6941 53.503 85.6941C53.8743 85.6941 54.2456 85.6941 54.6804 85.6941ZM89.6702 51.0009C89.6702 50.5407 89.6702 50.2034 89.6702 49.8661C89.6702 41.6598 89.6713 33.4534 89.6697 25.2471C89.669 22.1859 88.1096 20.6437 84.999 20.6423C76.4215 20.6382 67.844 20.6408 59.2664 20.6407C58.8986 20.6407 58.5308 20.6407 58.1315 20.6407V27.1173C62.9741 28.6287 65.6829 31.7907 65.7985 36.0184C65.9228 40.5654 63.5308 43.5743 58.1568 45.6253V51.0011C60.6191 51.0011 63.0005 50.9978 65.3819 51.0021C67.2351 51.0054 67.6208 51.3505 67.825 53.1607C68.1718 56.2343 70.5116 58.4368 73.6083 58.6046C76.5639 58.7647 79.1912 56.7223 79.8317 53.7666C80.2313 51.9228 81.3814 51.0009 83.2822 51.0008C84.6311 51.0008 85.98 51.0008 87.3289 51.0008L89.6702 51.0009ZM89.6702 55.359C87.8189 55.359 86.0657 55.398 84.3155 55.3421C83.4742 55.3152 83.0832 55.5211 82.825 56.4088C81.717 60.2174 78.2649 62.8625 74.3622 63.0355C70.3382 63.2139 66.6726 60.9096 65.1647 57.2537C64.6438 55.9905 63.6968 55.359 62.324 55.359H58.0744C58.0744 57.6342 58.0835 59.7251 58.0713 61.8159C58.0627 63.2942 57.6048 63.7878 56.1533 63.9502C55.9473 63.9733 55.7418 64.0016 55.5367 64.0315C52.516 64.4719 50.288 67.0119 50.2958 70.0052C50.3038 73.0233 52.6248 75.6156 55.6607 75.9969C57.8325 76.2698 58.0742 76.5405 58.0747 78.7065C58.0751 80.9969 58.0748 83.2873 58.0748 85.6941C58.5556 85.6941 58.9255 85.6941 59.2954 85.6941C67.8683 85.6941 76.4413 85.6951 85.0142 85.6936C88.1165 85.693 89.6691 84.157 89.6697 81.0876C89.6712 72.92 89.6702 64.7524 89.6702 56.5848C89.6702 56.2157 89.6702 55.8465 89.6702 55.359Z" fill="url(#paint0_linear_116_3729)"/>
<path d="M38.3226 9.79015C40.5238 10.2889 42.4002 11.3044 43.8417 13.0374C48.1609 18.2302 45.7443 26.1146 39.2252 27.9624C38.4107 28.1932 38.2229 28.5234 38.2395 29.2925C38.2878 31.5228 38.2661 33.7549 38.2522 35.9862C38.2433 37.4223 37.6911 37.9868 36.2485 37.9961C33.3786 38.0147 30.5084 38.0052 27.6384 38.0017C25.7456 37.9993 25.406 37.664 25.1606 35.7598C24.8302 33.1962 23.4117 31.4439 20.937 30.6817C18.4634 29.9199 16.2876 30.5683 14.5441 32.4772C13.6359 33.4716 13.1615 34.673 13.0735 36.0243C12.9789 37.4779 12.4533 37.9891 10.994 37.9971C8.02032 38.0136 5.04638 38.0132 2.07266 37.9975C0.574222 37.9897 0.00734031 37.4132 0.00671655 35.9321C0.0027162 26.4231 -0.00816625 16.9141 0.0109664 7.40515C0.019437 3.19629 3.18576 0.026143 7.41929 0.0147171C16.9976 -0.0111368 26.5761 0.00397665 36.1545 0.00862218C37.6981 0.0093696 38.2474 0.572176 38.2539 2.14281C38.2635 4.44278 38.255 6.74283 38.2598 9.04283C38.2602 9.2781 38.2983 9.5133 38.3226 9.79015ZM34.9268 34.6934C34.9268 32.2715 34.9263 29.9797 34.927 27.6879C34.9276 25.5749 35.1841 25.2813 37.2766 24.9911C40.4909 24.5454 42.6836 21.9952 42.5982 18.8017C42.5145 15.6732 40.1025 13.2242 36.8634 12.979C35.4935 12.8753 34.9459 12.3266 34.9329 10.9521C34.9124 8.78888 34.9296 6.62527 34.9243 4.46183C34.9234 4.09983 34.8898 3.73791 34.868 3.30968C34.4536 3.30968 34.1476 3.30968 33.8416 3.30968C25.1592 3.30969 16.4768 3.30717 7.79435 3.31114C4.91449 3.31246 3.3332 4.90559 3.33232 7.79852C3.32973 16.3837 3.33138 24.9688 3.33138 33.554C3.33138 33.9143 3.33138 34.2746 3.33138 34.6948C5.32569 34.6948 7.15806 34.6629 8.98829 34.7112C9.67817 34.7293 9.92154 34.478 10.1016 33.8416C10.809 31.342 12.3487 29.4612 14.6419 28.2163C19.9056 25.3588 26.4237 28.0428 28.1814 33.7867C28.3235 34.2509 28.3365 34.7174 29.0404 34.7049C30.9407 34.6712 32.842 34.6934 34.9268 34.6934Z" fill="url(#paint1_linear_116_3729)"/>
<defs>
<linearGradient id="paint0_linear_116_3729" x1="20.154" y1="93.5107" x2="99.8872" y2="24.52" gradientUnits="userSpaceOnUse">
<stop stop-color="#ED5C2F"/>
<stop offset="0.485" stop-color="#F28230"/>
<stop offset="0.975" stop-color="#FAB331"/>
</linearGradient>
<linearGradient id="paint1_linear_116_3729" x1="0.244055" y1="40.4015" x2="42.9583" y2="-3.38889" gradientUnits="userSpaceOnUse">
<stop stop-color="#ED5C2F"/>
<stop offset="0.485" stop-color="#F28230"/>
<stop offset="0.975" stop-color="#FAB331"/>
</linearGradient>
</defs>
</svg>
