<svg width="170" height="40" viewBox="0 0 170 40" fill="none" xmlns="http://www.w3.org/2000/svg">
<g clip-path="url(#clip0_40_421)">
<path d="M14.362 0H0.0551758V18.555H14.362V0Z" fill="white"/>
<path d="M25.0985 0H17.9451V18.555H32.2519V7.42871H25.0985V0Z" fill="white"/>
<path d="M32.2518 7.42872H25.0984V0L32.2518 7.42872Z" fill="white"/>
<path d="M32.1969 28.8569L25.0435 21.4249L17.8901 28.8569V40H32.1969V28.8569Z" fill="white"/>
<path d="M7.15386 21.4234L-0.000488281 28.8531L7.15386 36.2828L14.3082 28.8531L7.15386 21.4234Z" fill="white"/>
<path d="M0 28.8569V39.9798H14.3068V28.8569L7.15339 36.2856L0 28.8569Z" fill="white"/>
<path d="M44.686 18.9957C43.6493 18.9957 42.7065 18.7871 41.8609 18.3733C41.0153 17.9595 40.2896 17.3942 39.6838 16.6843C39.078 15.9711 38.6082 15.1703 38.2777 14.2787C37.944 13.3872 37.7788 12.472 37.7788 11.5334C37.7788 10.5947 37.9538 9.61561 38.3069 8.72403C38.66 7.83245 39.146 7.03844 39.7648 6.33863C40.3836 5.64219 41.1158 5.08706 41.9613 4.67996C42.8069 4.27286 43.7335 4.06763 44.7443 4.06763C45.7551 4.06763 46.7044 4.28295 47.5499 4.71024C48.3955 5.13752 49.118 5.71285 49.7173 6.42947C50.3167 7.14947 50.7832 7.95021 51.1137 8.83506C51.4474 9.71991 51.6126 10.6317 51.6126 11.5704C51.6126 12.509 51.4409 13.4679 51.0942 14.3595C50.7476 15.2511 50.2649 16.0451 49.6461 16.7449C49.0273 17.4413 48.2951 17.9931 47.4495 18.3935C46.6039 18.7938 45.6838 18.9957 44.686 18.9957ZM40.5747 11.5334C40.5747 12.1692 40.6687 12.7849 40.8533 13.3771C41.038 13.9726 41.3102 14.5008 41.6633 14.9617C42.0164 15.426 42.4473 15.7894 42.9592 16.0619C43.4711 16.3311 44.0542 16.4656 44.7054 16.4656C45.3566 16.4656 45.9624 16.3243 46.4808 16.0417C46.9992 15.7591 47.4333 15.3789 47.7767 14.9012C48.1234 14.4234 48.3858 13.8918 48.564 13.3064C48.7422 12.7176 48.8329 12.1289 48.8329 11.5334C48.8329 10.8975 48.7357 10.2851 48.5445 9.69972C48.3501 9.11094 48.078 8.58609 47.7249 8.12516C47.3717 7.66086 46.9409 7.2975 46.429 7.02498C45.9171 6.75583 45.3404 6.62125 44.7022 6.62125C44.0251 6.62125 43.429 6.76255 42.9171 7.04517C42.4052 7.32778 41.9743 7.7046 41.6309 8.17563C41.2842 8.64665 41.0218 9.1715 40.8436 9.75019C40.6654 10.3289 40.5747 10.9244 40.5747 11.5334Z" fill="white"/>
<path d="M53.7283 18.8948V4.17529H59.738C60.3892 4.17529 60.9886 4.31323 61.5329 4.58911C62.0771 4.865 62.5534 5.23845 62.9616 5.70948C63.3666 6.1805 63.6841 6.70535 63.9108 7.28404C64.1376 7.86609 64.251 8.45824 64.251 9.0672C64.251 9.89486 64.0631 10.6855 63.6905 11.429C63.318 12.176 62.8061 12.7849 62.1549 13.2526C61.5037 13.7236 60.7294 13.9558 59.8385 13.9558H56.4853V18.888H53.7315L53.7283 18.8948ZM56.4821 11.4526H59.6765C60.0102 11.4526 60.3082 11.355 60.5739 11.1633C60.8396 10.9681 61.0534 10.6889 61.2121 10.3221C61.3709 9.95542 61.4519 9.53823 61.4519 9.0672C61.4519 8.55581 61.3612 8.12179 61.183 7.76179C61.0048 7.4018 60.7715 7.13264 60.4832 6.95432C60.1981 6.77601 59.8871 6.68517 59.5534 6.68517H56.4788V11.4526H56.4821Z" fill="white"/>
<path d="M76.0047 16.3849V18.8914H66.1624V4.17529H75.8233V6.6818H68.9161V10.2279H74.8838V12.5494H68.9161V16.3849H76.0015H76.0047Z" fill="white"/>
<path d="M80.9162 9.44066V18.8948H78.1624V4.17529H80.3589L87.684 13.875V4.19547H90.4378V18.8914H88.1408L80.9162 9.43729V9.44066Z" fill="white"/>
<path d="M98.181 18.8948V4.17529H100.935V16.3849H108.159V18.8914H98.1777L98.181 18.8948Z" fill="white"/>
<path d="M119.68 16.3849V18.8914H109.838V4.17529H119.499V6.6818H112.591V10.2279H118.559V12.5494H112.591V16.3849H119.677H119.68Z" fill="white"/>
<path d="M132.435 6.68517H127.903V18.8948H125.168V6.68517H120.636V4.17865H132.432V6.68517H132.435Z" fill="white"/>
<path d="M144.791 6.68517H140.259V18.8948H137.525V6.68517H132.992V4.17865H144.788V6.68517H144.791Z" fill="white"/>
<path d="M156.387 16.3849V18.8914H146.544V4.17529H156.205V6.6818H149.298V10.2279H155.266V12.5494H149.298V16.3849H156.383H156.387Z" fill="white"/>
<path d="M158.544 18.8948V4.17529H164.813C165.464 4.17529 166.067 4.31323 166.621 4.58911C167.172 4.865 167.651 5.23845 168.059 5.70948C168.464 6.1805 168.779 6.70535 168.999 7.28404C169.219 7.86609 169.329 8.45824 169.329 9.0672C169.329 9.67617 169.226 10.2885 169.022 10.8605C168.814 11.4358 168.519 11.9337 168.134 12.3644C167.748 12.7917 167.295 13.1247 166.776 13.3602L170.01 18.8948H166.977L164.065 13.9625H161.311V18.8948H158.557H158.544ZM161.298 11.4526H164.752C165.098 11.4526 165.403 11.3449 165.668 11.1296C165.934 10.9143 166.148 10.6283 166.307 10.2683C166.465 9.90832 166.546 9.50795 166.546 9.0672C166.546 8.59618 166.452 8.18572 166.268 7.83245C166.08 7.47918 165.843 7.19993 165.558 6.99133C165.273 6.78274 164.962 6.6818 164.632 6.6818H161.298V11.4492V11.4526Z" fill="white"/>
<path d="M74.2586 26.1317C73.8666 25.3983 73.3353 24.8532 72.6549 24.5C71.9778 24.1433 71.2068 23.965 70.3482 23.965C69.4216 23.965 68.5955 24.1669 67.8698 24.5706C67.4389 24.8129 67.0696 25.1123 66.7618 25.4757V24.1332H63.7585V35.3907H66.9011V29.8259C66.9011 29.1261 67.0145 28.5541 67.2348 28.11C67.4551 27.6625 67.7661 27.3328 68.1614 27.1141C68.5566 26.8988 69.0037 26.7912 69.5026 26.7912C70.1992 26.7912 70.7402 27.0065 71.1258 27.4405C71.5081 27.8711 71.6992 28.5407 71.6992 29.4491V35.3907H74.8418V28.9444C74.8418 27.8005 74.6474 26.8652 74.2586 26.1317Z" fill="white"/>
<path d="M88.1832 26.1317C87.7912 25.3983 87.2598 24.8532 86.5795 24.5C85.9024 24.1433 85.1313 23.965 84.2728 23.965C83.3462 23.965 82.5201 24.1669 81.7944 24.5706C81.3635 24.8129 80.9941 25.1123 80.6864 25.4757V24.1332H77.6831V35.3907H80.8289V29.8259C80.8289 29.1261 80.9391 28.5541 81.1594 28.11C81.3829 27.6625 81.6907 27.3328 82.0859 27.1141C82.4812 26.8988 82.9283 26.7912 83.4272 26.7912C84.1238 26.7912 84.6648 27.0065 85.0503 27.4405C85.4326 27.8711 85.6238 28.5407 85.6238 29.4491V35.3907H88.7663V28.9444C88.7663 27.8005 88.5719 26.8652 88.1832 26.1317Z" fill="white"/>
<path d="M101.563 26.6768C101.064 25.802 100.391 25.1325 99.5385 24.6648C98.6832 24.2005 97.7275 23.965 96.6648 23.965C95.6022 23.965 94.5784 24.214 93.7037 24.7086C92.8289 25.2031 92.1421 25.8861 91.6367 26.7575C91.1345 27.6323 90.8818 28.6315 90.8818 29.762C90.8818 30.8924 91.1378 31.8715 91.6497 32.7429C92.1583 33.6176 92.8808 34.304 93.8138 34.8053C94.7469 35.3066 95.8322 35.5589 97.0698 35.5589C98.0482 35.5589 98.9165 35.4008 99.6681 35.0879C100.42 34.775 101.045 34.3242 101.544 33.7388L99.8689 31.8547C99.5061 32.218 99.1076 32.4905 98.6702 32.6722C98.2329 32.8539 97.7275 32.9414 97.1508 32.9414C96.5061 32.9414 95.9424 32.8203 95.4661 32.578C94.9899 32.3324 94.6205 31.9758 94.3581 31.5081C94.2156 31.2558 94.1119 30.9799 94.0503 30.6838H102.247C102.26 30.5425 102.276 30.3945 102.289 30.233C102.302 30.0715 102.308 29.9302 102.308 29.8023C102.308 28.5911 102.059 27.5482 101.563 26.6768ZM94.0114 28.7795C94.06 28.4296 94.1605 28.11 94.3095 27.8274C94.5363 27.3867 94.857 27.0435 95.2652 26.8012C95.6767 26.5556 96.1497 26.4345 96.6875 26.4345C97.2253 26.4345 97.6951 26.5556 98.0968 26.8012C98.4985 27.0435 98.816 27.3833 99.0428 27.8173C99.1951 28.1033 99.2955 28.4229 99.3473 28.7795H94.0114Z" fill="white"/>
<path d="M111.004 32.5141C110.58 32.7597 110.12 32.8808 109.624 32.8808C109.086 32.8808 108.603 32.7563 108.172 32.504C107.742 32.2517 107.405 31.895 107.155 31.4375C106.906 30.9765 106.783 30.418 106.783 29.762C106.783 29.1059 106.906 28.5474 107.155 28.0865C107.405 27.6289 107.742 27.2723 108.172 27.0199C108.603 26.771 109.086 26.6431 109.624 26.6431C110.12 26.6431 110.58 26.771 111.004 27.0199C111.428 27.2723 111.778 27.6625 112.063 28.1941L114.5 26.8315C114.098 25.913 113.473 25.2031 112.627 24.7086C111.778 24.214 110.787 23.965 109.643 23.965C108.5 23.965 107.434 24.214 106.52 24.7086C105.607 25.2031 104.891 25.8861 104.375 26.7575C103.857 27.6323 103.598 28.6315 103.598 29.762C103.598 30.8924 103.857 31.8748 104.375 32.7563C104.891 33.6345 105.607 34.3208 106.52 34.8154C107.434 35.31 108.474 35.5589 109.643 35.5589C110.813 35.5589 111.778 35.31 112.627 34.8154C113.473 34.3208 114.098 33.621 114.5 32.7126L112.063 31.3332C111.778 31.8748 111.428 32.2685 111.004 32.5141Z" fill="white"/>
<path d="M122.622 32.5444C122.272 32.8236 121.847 32.9649 121.352 32.9649C120.934 32.9649 120.606 32.8337 120.363 32.578C120.12 32.319 120.001 31.9522 120.001 31.4778V21.6435H116.858V31.5216C116.858 32.8606 117.214 33.8666 117.927 34.5429C118.637 35.2191 119.631 35.5589 120.908 35.5589C121.39 35.5589 121.857 35.4984 122.307 35.3806C122.758 35.2629 123.143 35.0845 123.467 34.8457L122.622 32.5444ZM115.186 24.3822V26.8955H122.703V24.3822H115.186Z" fill="white"/>
<path d="M60.0651 33.446C58.9539 34.8187 57.3275 35.606 55.6007 35.606C53.8739 35.606 52.4031 34.8894 51.3113 33.6513L53.0964 31.0573L53.2033 31.2221C53.7443 32.0498 54.6385 32.5444 55.6007 32.5444C56.4528 32.5444 57.2595 32.1541 57.8102 31.4745C58.3675 30.7848 58.5943 29.9066 58.442 28.9982C58.2087 27.602 56.9873 26.5455 55.604 26.5455H55.5424C54.9366 26.559 54.3631 26.7743 53.6893 27.2454C52.97 27.7433 52.3189 28.4128 51.7519 29.2337L49.4614 32.5376C48.9916 33.2206 48.4959 33.7758 47.9517 34.23C46.646 35.3268 45.1071 35.929 43.6136 35.929C41.9581 35.929 40.3706 35.1956 39.2659 33.9103C38.1611 32.6285 37.633 30.9059 37.8177 29.1833C38.1028 26.4816 40.1892 24.251 42.7745 23.8708C43.0531 23.8304 43.335 23.8102 43.6169 23.8102C45.2627 23.8102 46.8145 24.5302 47.9095 25.7684L46.0791 28.2984L46.011 28.1941C45.4732 27.3631 44.5726 26.8719 43.6104 26.8719C43.4678 26.8719 43.3253 26.882 43.186 26.9022C41.916 27.0906 40.889 28.1874 40.7464 29.5197C40.6525 30.3911 40.9084 31.2255 41.4624 31.8681C42.0132 32.504 42.794 32.8674 43.6136 32.8674C44.4333 32.8674 45.3177 32.504 46.0985 31.8479C46.4354 31.5687 46.7529 31.2053 47.0704 30.7478L49.3609 27.4439C50.132 26.3269 51.0391 25.405 52.05 24.7018C53.2065 23.8977 54.2983 23.5108 55.4873 23.4873C55.5295 23.4873 55.5716 23.4873 55.6137 23.4873C58.4096 23.4873 60.8718 25.6338 61.3448 28.4801C61.6429 30.27 61.1764 32.0801 60.0651 33.4494V33.446Z" fill="white"/>
</g>
<defs>
<clipPath id="clip0_40_421">
<rect width="170" height="40" fill="white"/>
</clipPath>
</defs>
</svg>
