<svg width="140" height="63" viewBox="0 0 140 63" fill="none" xmlns="http://www.w3.org/2000/svg">
<path d="M7.31318 45.1007C6.21551 45.1007 5.21733 44.8884 4.32205 44.4673C3.42677 44.0462 2.6584 43.471 2.01696 42.7486C1.37551 42.0228 0.87813 41.208 0.52825 40.3008C0.17494 39.3935 0 38.4623 0 37.5071C0 36.5519 0.185231 35.5557 0.559122 34.6484C0.933013 33.7412 1.44754 32.9332 2.10271 32.2211C2.75788 31.5124 3.5331 30.9475 4.42838 30.5333C5.32366 30.119 6.3047 29.9102 7.37492 29.9102C8.44514 29.9102 9.45019 30.1293 10.3455 30.5641C11.2408 30.9989 12.0057 31.5843 12.6403 32.3135C13.2749 33.0462 13.7688 33.861 14.1187 34.7614C14.472 35.6618 14.6469 36.5896 14.6469 37.5448C14.6469 38.5 14.4651 39.4757 14.0981 40.3829C13.7311 41.2902 13.22 42.0982 12.5648 42.8103C11.9096 43.519 11.1344 44.0804 10.2391 44.4878C9.34385 44.8952 8.36968 45.1007 7.31318 45.1007ZM2.96026 37.5071C2.96026 38.1542 3.05973 38.7807 3.25526 39.3833C3.45078 39.9892 3.73891 40.5267 4.1128 40.9958C4.4867 41.4682 4.94291 41.838 5.48488 42.1153C6.02685 42.3892 6.64429 42.5261 7.33376 42.5261C8.02323 42.5261 8.66467 42.3823 9.21351 42.0947C9.76234 41.8072 10.222 41.4203 10.5856 40.9341C10.9526 40.448 11.2305 39.9071 11.4191 39.3114C11.6078 38.7122 11.7038 38.1131 11.7038 37.5071C11.7038 36.8601 11.6009 36.237 11.3985 35.6413C11.1927 35.0421 10.9046 34.508 10.5307 34.039C10.1568 33.5666 9.70059 33.1968 9.15862 32.9195C8.61665 32.6456 8.00608 32.5087 7.33033 32.5087C6.61342 32.5087 5.98226 32.6525 5.44029 32.94C4.89832 33.2276 4.4421 33.6111 4.0785 34.0904C3.71147 34.5697 3.43363 35.1038 3.24497 35.6926C3.0563 36.2815 2.96026 36.8874 2.96026 37.5071Z" fill="white"/>
<path d="M16.8867 44.9943V30.0195H23.2497C23.9392 30.0195 24.5738 30.1599 25.1501 30.4406C25.7263 30.7214 26.2306 31.1014 26.6628 31.5807C27.0916 32.06 27.4277 32.5941 27.6678 33.1829C27.9079 33.7752 28.028 34.3778 28.028 34.9974C28.028 35.8396 27.829 36.6442 27.4346 37.4008C27.0401 38.1608 26.4981 38.7805 25.8087 39.2564C25.1192 39.7357 24.2994 39.9719 23.3561 39.9719H19.8058V44.9909H16.8901L16.8867 44.9943ZM19.8024 37.4213H23.1846C23.5379 37.4213 23.8534 37.3221 24.1347 37.1269C24.416 36.9283 24.6424 36.6442 24.8105 36.271C24.9786 35.8978 25.0643 35.4733 25.0643 34.994C25.0643 34.4736 24.9683 34.032 24.7796 33.6657C24.5909 33.2993 24.344 33.0254 24.0387 32.844C23.7368 32.6625 23.4075 32.5701 23.0542 32.5701H19.799V37.4213H19.8024Z" fill="white"/>
<path d="M40.4727 42.4408V44.9914H30.0518V30.0166H40.2806V32.5672H32.9674V36.1757H39.2858V38.5379H32.9674V42.4408H40.4693H40.4727Z" fill="white"/>
<path d="M45.6696 35.374V44.9943H42.7539V30.0195H45.0796L52.8353 39.8898V30.0401H55.7509V44.9943H53.3189L45.6696 35.374Z" fill="white"/>
<path d="M63.9527 44.9943V30.0195H66.8683V42.4438H74.5177V44.9943H63.9492H63.9527Z" fill="white"/>
<path d="M86.7119 42.4408V44.9914H76.291V30.0166H86.5199V32.5672H79.2067V36.1757H85.5251V38.5379H79.2067V42.4408H86.7085H86.7119Z" fill="white"/>
<path d="M100.216 32.5701H95.4176V44.9943H92.5225V32.5701H87.7236V30.0195H100.213V32.5701H100.216Z" fill="white"/>
<path d="M113.299 32.5701H108.5V44.9943H105.605V32.5701H100.806V30.0195H113.295V32.5701H113.299Z" fill="white"/>
<path d="M125.58 42.4408V44.9914H115.159V30.0166H125.388V32.5672H118.074V36.1757H124.393V38.5379H118.074V42.4408H125.576H125.58Z" fill="white"/>
<path d="M127.86 44.9943V30.0195H134.498C135.187 30.0195 135.825 30.1599 136.412 30.4406C136.995 30.7214 137.503 31.1014 137.935 31.5807C138.364 32.06 138.696 32.5941 138.93 33.1829C139.163 33.7752 139.279 34.3778 139.279 34.9974C139.279 35.6171 139.17 36.2402 138.954 36.8222C138.734 37.4077 138.422 37.9143 138.014 38.3526C137.606 38.7874 137.125 39.1263 136.576 39.366L140 44.9978H136.789L133.705 39.9788H130.79V44.9978H127.874L127.86 44.9943ZM130.776 37.4213H134.433C134.8 37.4213 135.122 37.3118 135.403 37.0927C135.685 36.8736 135.911 36.5826 136.079 36.2162C136.247 35.8499 136.333 35.4425 136.333 34.994C136.333 34.5147 136.233 34.097 136.038 33.7376C135.839 33.3781 135.589 33.0939 135.287 32.8817C134.985 32.6694 134.656 32.5667 134.306 32.5667H130.776V37.4179V37.4213Z" fill="white"/>
<path d="M45.0519 0.533203H26.9199V23.1324H45.0519V0.533203Z" fill="#F15A22"/>
<path d="M58.6598 0.532227H49.5938V23.1314H67.7258V9.58079H58.6598V0.532227Z" fill="#F58220"/>
<path d="M67.7257 9.58079H58.6597V0.532227L67.7257 9.58079Z" fill="#F15A22"/>
<path d="M113.072 9.58177L104.003 0.533203L94.937 9.58177V23.1563H113.072V9.58177Z" fill="#FDB515"/>
<path d="M81.3337 0.530944L72.2671 9.58008L81.3337 18.6292L90.4002 9.58008L81.3337 0.530944Z" fill="#FDB515"/>
<path d="M72.2676 9.58105V23.1317H90.3996V9.58105L81.3336 18.6296L72.2676 9.58105Z" fill="#F58220"/>
<path d="M63.2559 52.3591C62.8409 51.6127 62.2783 51.0581 61.558 50.6986C60.8411 50.3357 60.0247 50.1543 59.1157 50.1543C58.1347 50.1543 57.26 50.3597 56.4916 50.7705C56.0354 51.017 55.6443 51.3217 55.3185 51.6915V50.3255H52.1387V61.7808H55.466V56.1182C55.466 55.4061 55.586 54.8241 55.8193 54.3722C56.0525 53.9168 56.3818 53.5813 56.8003 53.3588C57.2188 53.1397 57.6922 53.0301 58.2204 53.0301C58.9579 53.0301 59.5307 53.2492 59.9389 53.6909C60.3437 54.1291 60.5461 54.8104 60.5461 55.7348V61.7808H63.8734V55.2212C63.8734 54.0572 63.6676 53.1054 63.2559 52.3591Z" fill="white"/>
<path d="M77.9991 52.3591C77.5841 51.6127 77.0215 51.0581 76.3012 50.6986C75.5842 50.3357 74.7679 50.1543 73.8589 50.1543C72.8778 50.1543 72.0031 50.3597 71.2348 50.7705C70.7785 51.017 70.3875 51.3217 70.0616 51.6915V50.3255H66.8818V61.7808H70.2126V56.1182C70.2126 55.4061 70.3292 54.8241 70.5624 54.3722C70.7991 53.9168 71.125 53.5813 71.5435 53.3588C71.962 53.1397 72.4353 53.0301 72.9636 53.0301C73.7011 53.0301 74.2739 53.2492 74.6821 53.6909C75.0869 54.1291 75.2893 54.8104 75.2893 55.7348V61.7808H78.6165V55.2212C78.6165 54.0572 78.4107 53.1054 77.9991 52.3591Z" fill="white"/>
<path d="M92.1658 52.9137C91.6376 52.0236 90.9241 51.3423 90.0219 50.8664C89.1164 50.3939 88.1045 50.1543 86.9793 50.1543C85.8542 50.1543 84.7703 50.4076 83.8441 50.9109C82.918 51.4142 82.1908 52.1092 81.6557 52.9959C81.124 53.886 80.8564 54.9028 80.8564 56.0532C80.8564 57.2035 81.1274 58.1997 81.6694 59.0865C82.2079 59.9766 82.9729 60.675 83.9608 61.1851C84.9487 61.6952 86.0978 61.952 87.4081 61.952C88.444 61.952 89.3633 61.7911 90.1591 61.4727C90.9549 61.1543 91.617 60.6956 92.1452 60.0998L90.3718 58.1826C89.9876 58.5524 89.5657 58.8297 89.1026 59.0146C88.6396 59.1994 88.1045 59.2885 87.4939 59.2885C86.8113 59.2885 86.2144 59.1652 85.7102 58.9187C85.2059 58.6688 84.8149 58.3059 84.537 57.83C84.3861 57.5732 84.2764 57.2925 84.2112 56.9912H92.8896C92.9033 56.8474 92.9204 56.6968 92.9342 56.5325C92.9479 56.3681 92.9547 56.2243 92.9547 56.0942C92.9547 54.8617 92.6906 53.8004 92.1658 52.9137ZM84.17 55.0535C84.2215 54.6974 84.3278 54.3722 84.4856 54.0846C84.7257 53.6361 85.0653 53.2869 85.4975 53.0404C85.9331 52.7905 86.4339 52.6672 87.0034 52.6672C87.5728 52.6672 88.0701 52.7905 88.4955 53.0404C88.9208 53.2869 89.257 53.6327 89.4971 54.0743C89.6583 54.3653 89.7647 54.6906 89.8195 55.0535H84.17Z" fill="white"/>
<path d="M102.161 58.8537C101.712 59.1036 101.225 59.2268 100.7 59.2268C100.131 59.2268 99.6195 59.1002 99.1633 58.8434C98.707 58.5866 98.3503 58.2237 98.0862 57.7581C97.8221 57.2891 97.6917 56.7208 97.6917 56.0532C97.6917 55.3856 97.8221 54.8172 98.0862 54.3482C98.3503 53.8826 98.707 53.5197 99.1633 53.2629C99.6195 53.0096 100.131 52.8795 100.7 52.8795C101.225 52.8795 101.712 53.0096 102.161 53.2629C102.611 53.5197 102.981 53.9168 103.283 54.4578L105.862 53.0712C105.437 52.1366 104.775 51.4142 103.88 50.9109C102.981 50.4076 101.931 50.1543 100.721 50.1543C99.5097 50.1543 98.3812 50.4076 97.4139 50.9109C96.4465 51.4142 95.6885 52.1092 95.1431 52.9959C94.5942 53.886 94.3198 54.9028 94.3198 56.0532C94.3198 57.2035 94.5942 58.2032 95.1431 59.1002C95.6885 59.9937 96.4465 60.6921 97.4139 61.1954C98.3812 61.6987 99.4823 61.952 100.721 61.952C101.959 61.952 102.981 61.6987 103.88 61.1954C104.775 60.6921 105.437 59.98 105.862 59.0557L103.283 57.652C102.981 58.2032 102.611 58.6037 102.161 58.8537Z" fill="white"/>
<path d="M114.462 58.8845C114.092 59.1686 113.642 59.3124 113.118 59.3124C112.675 59.3124 112.329 59.1789 112.071 58.9187C111.814 58.6551 111.687 58.2819 111.687 57.7992V47.792H108.36V57.8437C108.36 59.2063 108.737 60.2299 109.492 60.9181C110.243 61.6062 111.296 61.952 112.648 61.952C113.159 61.952 113.653 61.8904 114.129 61.7705C114.606 61.6507 115.014 61.4693 115.357 61.2262L114.462 58.8845ZM106.59 50.5788V53.1362H114.548V50.5788H106.59Z" fill="white"/>
<path d="M48.2282 59.8018C47.0517 61.1986 45.3297 61.9998 43.5014 61.9998C41.6731 61.9998 40.1158 61.2705 38.9598 60.0107L40.8499 57.3711L40.9631 57.5388C41.5359 58.381 42.4827 58.8843 43.5014 58.8843C44.4036 58.8843 45.2577 58.4871 45.8408 57.7956C46.4308 57.0937 46.6709 56.2002 46.5097 55.2758C46.2627 53.855 44.9695 52.78 43.5049 52.78H43.4397C42.7982 52.7937 42.1911 53.0128 41.4776 53.4921C40.7161 53.9988 40.0266 54.6801 39.4264 55.5155L37.0012 58.8774C36.5038 59.5724 35.979 60.1373 35.4027 60.5995C34.0204 61.7156 32.391 62.3284 30.8097 62.3284C29.0569 62.3284 27.3761 61.5821 26.2064 60.2743C25.0367 58.9699 24.4776 57.217 24.6731 55.4641C24.9749 52.715 27.184 50.4451 29.9213 50.0583C30.2163 50.0172 30.5147 49.9966 30.8131 49.9966C32.5557 49.9966 34.1987 50.7293 35.3581 51.9892L33.4201 54.5637L33.348 54.4576C32.7786 53.6119 31.825 53.1121 30.8063 53.1121C30.6553 53.1121 30.5044 53.1224 30.3569 53.1429C29.0123 53.3346 27.9249 54.4507 27.774 55.8065C27.6745 56.6932 27.9455 57.5422 28.532 58.1961C29.1152 58.8432 29.9419 59.213 30.8097 59.213C31.6775 59.213 32.614 58.8432 33.4407 58.1756C33.7974 57.8914 34.1336 57.5217 34.4697 57.0561L36.8949 53.6941C37.7113 52.5575 38.6717 51.6194 39.7419 50.9039C40.9665 50.0856 42.1225 49.6919 43.3814 49.668C43.426 49.668 43.4706 49.668 43.5151 49.668C46.4754 49.668 49.0824 51.8522 49.5832 54.7486C49.8987 56.5699 49.4048 58.4118 48.2282 59.8052V59.8018Z" fill="white"/>
</svg>
