<svg width="15" height="15" viewBox="0 0 15 15" fill="none" xmlns="http://www.w3.org/2000/svg">
<path d="M7.50208 1.35229C9.50347 1.35229 9.74064 1.36061 10.5312 1.39806C11.2635 1.43135 11.6588 1.55201 11.9251 1.65603C12.2746 1.79334 12.5243 1.95562 12.7864 2.21775C13.0485 2.47989 13.2108 2.72954 13.3481 3.07906C13.4521 3.34535 13.5728 3.74064 13.6061 4.47295C13.6435 5.26352 13.6519 5.50069 13.6519 7.50208C13.6519 9.50347 13.6435 9.74064 13.6061 10.5312C13.5728 11.2635 13.4521 11.6588 13.3481 11.9251C13.2108 12.2746 13.0485 12.5243 12.7864 12.7864C12.5243 13.0485 12.2746 13.2108 11.9251 13.3481C11.6588 13.4522 11.2635 13.5728 10.5312 13.6061C9.74064 13.6436 9.50347 13.6477 7.50208 13.6477C5.50069 13.6477 5.26352 13.6394 4.47295 13.6061C3.74064 13.5728 3.34535 13.4522 3.07906 13.3481C2.72954 13.2108 2.47989 13.0485 2.21775 12.7864C1.95562 12.5243 1.79334 12.2746 1.65603 11.9251C1.55201 11.663 1.43135 11.2635 1.39806 10.5312C1.36061 9.74064 1.35645 9.50347 1.35645 7.50208C1.35645 5.50069 1.36477 5.26352 1.39806 4.47295C1.43135 3.74064 1.55201 3.34535 1.65603 3.07906C1.79334 2.72954 1.95562 2.47989 2.21775 2.21775C2.47989 1.95562 2.72954 1.79334 3.07906 1.65603C3.34119 1.55201 3.74064 1.43135 4.47295 1.39806C5.26352 1.36061 5.50069 1.35229 7.50208 1.35229ZM7.50208 0C5.46325 0 5.20943 0.00832177 4.41054 0.0457698C3.61165 0.0832178 3.06657 0.208044 2.58807 0.395284C2.09293 0.586685 1.67684 0.84466 1.26075 1.26075C0.84466 1.67684 0.586685 2.09709 0.395284 2.58807C0.208044 3.06657 0.0832178 3.61165 0.0457698 4.40638C0.00832177 5.20527 0 5.46325 0 7.49792C0 9.53259 0.00832177 9.79057 0.0457698 10.5895C0.0832178 11.3883 0.208044 11.9334 0.395284 12.4119C0.586685 12.9029 0.84466 13.3232 1.26075 13.7393C1.67684 14.1553 2.09709 14.4133 2.58807 14.6047C3.06657 14.792 3.61165 14.9168 4.41054 14.9542C5.20943 14.9917 5.46741 15 7.50208 15C9.53675 15 9.79473 14.9917 10.5936 14.9542C11.3925 14.9168 11.9376 14.792 12.4119 14.6047C12.9071 14.4133 13.3232 14.1553 13.7392 13.7393C14.1553 13.3232 14.4133 12.9029 14.6047 12.4119C14.792 11.9334 14.9168 11.3883 14.9542 10.5895C14.9917 9.79057 15 9.53259 15 7.49792C15 5.46325 14.9917 5.20527 14.9542 4.40638C14.9168 3.60749 14.792 3.06241 14.6047 2.58807C14.4133 2.09293 14.1553 1.67684 13.7392 1.26075C13.3232 0.84466 12.9029 0.586685 12.4119 0.395284C11.9334 0.208044 11.3883 0.0832178 10.5936 0.0457698C9.79473 0.00832177 9.53675 0 7.50208 0Z" fill="white"/>
<path d="M7.50142 3.64941C5.37521 3.64941 3.64844 5.37202 3.64844 7.5024C3.64844 9.63277 5.37105 11.3554 7.50142 11.3554C9.63179 11.3554 11.3544 9.63277 11.3544 7.5024C11.3544 5.37202 9.63179 3.64941 7.50142 3.64941ZM7.50142 9.99893C6.12 9.99893 5.00073 8.87965 5.00073 7.49824C5.00073 6.11682 6.12 4.99754 7.50142 4.99754C8.88283 4.99754 10.0021 6.11682 10.0021 7.49824C10.0021 8.87965 8.88283 9.99893 7.50142 9.99893Z" fill="white"/>
<path d="M12.4069 3.49543C12.4069 3.99058 12.0033 4.39418 11.5081 4.39418C11.013 4.39418 10.6094 3.99058 10.6094 3.49543C10.6094 3.00029 11.013 2.59668 11.5081 2.59668C12.0033 2.59668 12.4069 3.00029 12.4069 3.49543Z" fill="white"/>
</svg>
