<svg width="17" height="17" viewBox="0 0 17 17" fill="none" xmlns="http://www.w3.org/2000/svg">
<path d="M3.84979 5.66699H0.337891V17.0059H3.84979V5.66699Z" fill="white"/>
<path d="M2.07723 4.18215C3.22385 4.18215 4.15445 3.24601 4.15445 2.0883C4.15445 0.930597 3.22385 0 2.07723 0C0.930597 0 0 0.936136 0 2.09384C0 3.25155 0.930597 4.18769 2.07723 4.18769V4.18215Z" fill="white"/>
<path d="M9.45577 11.0564C9.45577 9.46108 10.1869 8.51386 11.5939 8.51386C12.8846 8.51386 13.505 9.42784 13.505 11.0564V17.0056H17.0003V9.82667C17.0003 6.79115 15.2775 5.32324 12.8735 5.32324C10.4695 5.32324 9.45577 7.19552 9.45577 7.19552V5.66668H6.08789V17.0056H9.45577V11.0564Z" fill="white"/>
</svg>
