<svg width="15" height="18" viewBox="0 0 15 18" fill="none" xmlns="http://www.w3.org/2000/svg">
<path d="M14.9919 4.27485C14.0161 4.27485 13.1157 3.95157 12.3926 3.40619C11.5634 2.78099 10.9676 1.8639 10.7572 0.806878C10.7051 0.545711 10.677 0.276195 10.6743 0H7.88668V7.61725L7.88334 11.7896C7.88334 12.905 7.15695 13.8508 6.15002 14.1835C5.85779 14.28 5.54219 14.3258 5.21356 14.3077C4.79409 14.2847 4.401 14.1581 4.05935 13.9537C3.33229 13.5189 2.83935 12.73 2.82599 11.8276C2.80495 10.4173 3.94513 9.26741 5.35449 9.26741C5.63269 9.26741 5.89987 9.31283 6.15002 9.39532V7.31333V6.5649C5.88618 6.52583 5.61767 6.50545 5.34615 6.50545C3.80353 6.50545 2.36076 7.14668 1.32946 8.30189C0.549963 9.1749 0.0824009 10.2887 0.0102628 11.4566C-0.0842515 12.9909 0.477157 14.4493 1.56591 15.5254C1.72588 15.6834 1.89387 15.83 2.06954 15.9652C3.00299 16.6836 4.14418 17.073 5.34615 17.073C5.61767 17.073 5.88618 17.053 6.15002 17.0139C7.27283 16.8476 8.30882 16.3336 9.12638 15.5254C10.131 14.5325 10.686 13.2143 10.692 11.8113L10.6777 5.58068C11.1569 5.95039 11.6809 6.25631 12.2433 6.49377C13.118 6.86281 14.0455 7.04983 15 7.0495V5.02529V4.27418C15.0006 4.27485 14.9926 4.27485 14.9919 4.27485Z" fill="white"/>
</svg>
