<svg width="20" height="14" viewBox="0 0 20 14" fill="none" xmlns="http://www.w3.org/2000/svg">
<path d="M19.5799 2.18681C19.3477 1.32418 18.6733 0.648352 17.8109 0.417582C16.2521 0 10 0 10 0C10 0 3.74793 0 2.18905 0.417582C1.3267 0.648352 0.652294 1.32418 0.420122 2.18681C0 3.74725 0 7 0 7C0 7 0 10.2527 0.420122 11.8132C0.652294 12.6758 1.3267 13.3516 2.18905 13.5824C3.74793 14 10 14 10 14C10 14 16.2521 14 17.8109 13.5824C18.6733 13.3516 19.3477 12.6758 19.5799 11.8132C20 10.2527 20 7 20 7C20 7 20 3.74725 19.5799 2.18681ZM7.95467 9.95604V4.04396L13.1786 7L7.95467 9.95604Z" fill="white"/>
</svg>
