<svg width="120" height="120" viewBox="0 0 120 120" fill="none" xmlns="http://www.w3.org/2000/svg">
<g filter="url(#filter0_d_98_5638)">
<rect x="24.9746" y="20.9749" width="71" height="71" rx="4" fill="white"/>
<rect x="25.2246" y="21.2249" width="70.5" height="70.5" rx="3.75" stroke="white" stroke-width="0.5"/>
</g>
<path fill-rule="evenodd" clip-rule="evenodd" d="M72.3927 35.0841C72.885 35.3346 73.081 35.9366 72.8306 36.4289L71.0089 40.0098C70.7585 40.502 70.1564 40.6981 69.6642 40.4477C69.1719 40.1972 68.9759 39.5952 69.2263 39.1029L71.048 35.522C71.2984 35.0298 71.9005 34.8337 72.3927 35.0841ZM55.876 35.2682C56.2665 34.8776 56.8997 34.8776 57.2902 35.2682L59.7602 37.7382C59.7721 37.7495 59.7837 37.7611 59.795 37.773L79.6818 57.6598C80.0723 58.0503 80.0723 58.6835 79.6818 59.074C79.2913 59.4645 78.6581 59.4645 78.2676 59.074L76.2759 57.0823L59.4658 64.9637L65.2407 70.7386C66.0811 71.5582 66.6053 72.706 66.6053 73.975C66.6053 76.4703 64.5822 78.4934 62.0868 78.4934C60.8179 78.4934 59.67 77.9693 58.8505 77.1288L52.7746 71.053L50.1758 73.6518C48.4113 75.4163 45.55 75.4163 43.7855 73.6518L43.7854 73.6517L41.298 71.1634C39.5335 69.3989 39.5335 66.5376 41.298 64.7731L49.4548 56.6163L57.8672 38.6736L55.876 36.6824C55.4855 36.2919 55.4855 35.6587 55.876 35.2682ZM54.1888 69.6388L60.2694 75.7194L60.2794 75.7295C60.7384 76.2018 61.3776 76.4934 62.0868 76.4934C63.4776 76.4934 64.6053 75.3658 64.6053 73.975C64.6053 73.2657 64.3136 72.6266 63.8413 72.1676L63.8312 72.1576L57.7506 66.077L54.1888 69.6388ZM57.9619 63.4599L74.772 55.5784L59.3711 40.1775L51.4896 56.9876L57.9619 63.4599ZM50.2866 58.613L56.3364 64.6628L48.7615 72.2376C47.7781 73.221 46.1832 73.221 45.1998 72.2376L42.7123 69.7493L42.7122 69.7491C41.7287 68.7657 41.7287 67.1708 42.7122 66.1874L50.2866 58.613ZM79.429 43.9038C79.9213 43.6534 80.1173 43.0513 79.8669 42.5591C79.6165 42.0668 79.0144 41.8708 78.5222 42.1212L74.9412 43.9429C74.449 44.1933 74.253 44.7954 74.5034 45.2876C74.7538 45.7799 75.3558 45.9759 75.8481 45.7255L79.429 43.9038Z" fill="url(#paint0_linear_98_5638)"/>
<defs>
<filter id="filter0_d_98_5638" x="0.974609" y="0.974854" width="119" height="119" filterUnits="userSpaceOnUse" color-interpolation-filters="sRGB">
<feFlood flood-opacity="0" result="BackgroundImageFix"/>
<feColorMatrix in="SourceAlpha" type="matrix" values="0 0 0 0 0 0 0 0 0 0 0 0 0 0 0 0 0 0 127 0" result="hardAlpha"/>
<feMorphology radius="4" operator="dilate" in="SourceAlpha" result="effect1_dropShadow_98_5638"/>
<feOffset dy="4"/>
<feGaussianBlur stdDeviation="10"/>
<feComposite in2="hardAlpha" operator="out"/>
<feColorMatrix type="matrix" values="0 0 0 0 0.94902 0 0 0 0 0.509804 0 0 0 0 0.188235 0 0 0 0.2 0"/>
<feBlend mode="normal" in2="BackgroundImageFix" result="effect1_dropShadow_98_5638"/>
<feBlend mode="normal" in="SourceGraphic" in2="effect1_dropShadow_98_5638" result="shape"/>
</filter>
<linearGradient id="paint0_linear_98_5638" x1="39.9746" y1="78.4934" x2="79.9758" y2="78.4934" gradientUnits="userSpaceOnUse">
<stop stop-color="#ED5C2F"/>
<stop offset="0.510417" stop-color="#F28230"/>
<stop offset="1" stop-color="#FAB331"/>
</linearGradient>
</defs>
</svg>
