<svg width="137" height="110" viewBox="0 0 137 110" fill="none" xmlns="http://www.w3.org/2000/svg">
<g filter="url(#filter0_d_20_1483)">
<rect x="47.3505" y="13" width="71" height="71" rx="4" transform="rotate(20.058 47.3505 13)" fill="white"/>
<rect x="47.4996" y="13.3206" width="70.5" height="70.5" rx="3.75" transform="rotate(20.058 47.4996 13.3206)" stroke="white" stroke-width="0.5"/>
</g>
<path fill-rule="evenodd" clip-rule="evenodd" d="M77.6791 38.6483C77.6946 38.2154 77.4297 37.8216 77.0227 37.673C76.6157 37.5245 76.1594 37.6548 75.8923 37.9959L65.822 50.8588L50.4772 45.2562C50.0702 45.1076 49.6139 45.2379 49.3468 45.579C49.0798 45.9202 49.0627 46.3945 49.3046 46.7539L58.4256 60.3058L48.3553 73.1687C48.0883 73.5099 48.0712 73.9841 48.3131 74.3435C48.555 74.7029 49.0008 74.8657 49.4174 74.7467L65.1247 70.26L74.2457 83.812C74.4876 84.1714 74.9334 84.3341 75.35 84.2151C75.7665 84.0962 76.0591 83.7225 76.0747 83.2895L76.6615 66.9641L92.3688 62.4773C92.7854 62.3583 93.0779 61.9846 93.0935 61.5517C93.109 61.1187 92.8441 60.725 92.4371 60.5764L77.0922 54.9738L77.6791 38.6483ZM66.9489 52.6638L75.5698 41.6523L75.0674 55.628C75.0519 56.0609 75.3169 56.4547 75.7238 56.6033L88.8601 61.3996L75.4136 65.2405C74.997 65.3595 74.7045 65.7332 74.6889 66.1661L74.1865 80.1421L66.3782 68.5405C66.1363 68.1811 65.6905 68.0183 65.2739 68.1373L51.8273 71.9783L60.4483 60.9667C60.7154 60.6256 60.7324 60.1513 60.4905 59.7919L52.6823 48.1904L65.8186 52.9867C66.2255 53.1353 66.6819 53.0049 66.9489 52.6638ZM63.8419 76.6888C64.0313 76.17 63.7643 75.5959 63.2455 75.4065C62.7267 75.217 62.1526 75.4841 61.9632 76.0028L60.4197 80.23C60.2303 80.7488 60.4973 81.3229 61.0161 81.5124C61.5349 81.7018 62.109 81.4348 62.2984 80.916L63.8419 76.6888ZM83.5108 69.618C83.8513 69.1831 84.4798 69.1066 84.9147 69.447L88.4583 72.2211C88.8932 72.5616 88.9697 73.1901 88.6293 73.625C88.2888 74.0598 87.6603 74.1364 87.2254 73.7959L83.6818 71.0218C83.247 70.6814 83.1704 70.0529 83.5108 69.618ZM89.3889 46.3139C89.8471 46.0056 89.9686 45.3842 89.6603 44.926C89.3519 44.4678 88.7305 44.3463 88.2723 44.6546L84.5387 47.1671C84.0805 47.4754 83.9591 48.0968 84.2674 48.555C84.5757 49.0132 85.1971 49.1347 85.6553 48.8264L89.3889 46.3139ZM62.6846 35.0767C63.2157 34.925 63.7691 35.2325 63.9209 35.7635L65.1572 40.0906C65.309 40.6216 65.0015 41.1751 64.4705 41.3268C63.9394 41.4786 63.3859 41.1711 63.2342 40.64L61.9978 36.313C61.8461 35.7819 62.1536 35.2285 62.6846 35.0767ZM50.4427 58.8857C50.9946 58.9055 51.4582 58.4742 51.478 57.9223C51.4979 57.3703 51.0665 56.9068 50.5146 56.887L46.0172 56.7252C45.4653 56.7053 45.0018 57.1367 44.9819 57.6886C44.962 58.2405 45.3934 58.704 45.9453 58.7239L50.4427 58.8857Z" fill="url(#paint0_linear_20_1483)"/>
<defs>
<filter id="filter0_d_20_1483" x="0.127686" y="-5.87207" width="136.788" height="136.788" filterUnits="userSpaceOnUse" color-interpolation-filters="sRGB">
<feFlood flood-opacity="0" result="BackgroundImageFix"/>
<feColorMatrix in="SourceAlpha" type="matrix" values="0 0 0 0 0 0 0 0 0 0 0 0 0 0 0 0 0 0 127 0" result="hardAlpha"/>
<feMorphology radius="4" operator="dilate" in="SourceAlpha" result="effect1_dropShadow_20_1483"/>
<feOffset dy="4"/>
<feGaussianBlur stdDeviation="10"/>
<feComposite in2="hardAlpha" operator="out"/>
<feColorMatrix type="matrix" values="0 0 0 0 0.94902 0 0 0 0 0.509804 0 0 0 0 0.188235 0 0 0 0.2 0"/>
<feBlend mode="normal" in2="BackgroundImageFix" result="effect1_dropShadow_20_1483"/>
<feBlend mode="normal" in="SourceGraphic" in2="effect1_dropShadow_20_1483" result="shape"/>
</filter>
<linearGradient id="paint0_linear_20_1483" x1="39.0969" y1="73.5093" x2="82.9356" y2="89.5155" gradientUnits="userSpaceOnUse">
<stop stop-color="#ED5C2F"/>
<stop offset="0.510417" stop-color="#F28230"/>
<stop offset="1" stop-color="#FAB331"/>
</linearGradient>
</defs>
</svg>
