<svg width="96" height="69" viewBox="0 0 96 69" fill="none" xmlns="http://www.w3.org/2000/svg">
<g opacity="0.6">
<mask id="path-1-outside-1_66_326" maskUnits="userSpaceOnUse" x="-2" y="-2" width="100" height="73" fill="black">
<rect fill="white" x="-2" y="-2" width="100" height="73"/>
<path d="M36.2031 0.499995L30.2031 32H41.4531V68.75H0.703126V31.25L10.2031 0.499995H36.2031ZM90.2031 0.499995L84.2031 32H95.4531V68.75H54.7031V31.25L64.2031 0.499995H90.2031Z"/>
</mask>
<path d="M36.2031 0.499995L30.2031 32H41.4531V68.75H0.703126V31.25L10.2031 0.499995H36.2031ZM90.2031 0.499995L84.2031 32H95.4531V68.75H54.7031V31.25L64.2031 0.499995H90.2031Z" fill="url(#paint0_linear_66_326)" fill-opacity="0.1"/>
<path d="M36.2031 0.499995L38.1678 0.87422L38.62 -1.5H36.2031V0.499995ZM30.2031 32L28.2384 31.6258L27.7862 34H30.2031V32ZM41.4531 32H43.4531V30H41.4531V32ZM41.4531 68.75V70.75H43.4531V68.75H41.4531ZM0.703126 68.75H-1.29687V70.75H0.703126V68.75ZM0.703126 31.25L-1.20776 30.6596L-1.29687 30.9481V31.25H0.703126ZM10.2031 0.499995V-1.5H8.72774L8.29224 -0.0903597L10.2031 0.499995ZM90.2031 0.499995L92.1678 0.874219L92.62 -1.5H90.2031V0.499995ZM84.2031 32L82.2385 31.6258L81.7862 34H84.2031V32ZM95.4531 32H97.4531V30H95.4531V32ZM95.4531 68.75V70.75H97.4531V68.75H95.4531ZM54.7031 68.75H52.7031V70.75H54.7031V68.75ZM54.7031 31.25L52.7922 30.6596L52.7031 30.9481V31.25H54.7031ZM64.2031 0.499995V-1.5H62.7277L62.2922 -0.0903594L64.2031 0.499995ZM34.2384 0.125771L28.2384 31.6258L32.1678 32.3742L38.1678 0.87422L34.2384 0.125771ZM30.2031 34H41.4531V30H30.2031V34ZM39.4531 32V68.75H43.4531V32H39.4531ZM41.4531 66.75H0.703126V70.75H41.4531V66.75ZM2.70313 68.75V31.25H-1.29687V68.75H2.70313ZM2.61401 31.8403L12.114 1.09035L8.29224 -0.0903597L-1.20776 30.6596L2.61401 31.8403ZM10.2031 2.5H36.2031V-1.5H10.2031V2.5ZM88.2385 0.125771L82.2385 31.6258L86.1678 32.3742L92.1678 0.874219L88.2385 0.125771ZM84.2031 34H95.4531V30H84.2031V34ZM93.4531 32V68.75H97.4531V32H93.4531ZM95.4531 66.75H54.7031V70.75H95.4531V66.75ZM56.7031 68.75V31.25H52.7031V68.75H56.7031ZM56.614 31.8403L66.114 1.09035L62.2922 -0.0903594L52.7922 30.6596L56.614 31.8403ZM64.2031 2.5H90.2031V-1.5H64.2031V2.5Z" fill="url(#paint1_linear_66_326)" mask="url(#path-1-outside-1_66_326)"/>
</g>
<defs>
<linearGradient id="paint0_linear_66_326" x1="48" y1="-5" x2="48" y2="79" gradientUnits="userSpaceOnUse">
<stop stop-color="white"/>
<stop offset="1" stop-color="white" stop-opacity="0"/>
</linearGradient>
<linearGradient id="paint1_linear_66_326" x1="48" y1="-4.99999" x2="55" y2="69" gradientUnits="userSpaceOnUse">
<stop stop-color="white"/>
<stop offset="1" stop-color="white" stop-opacity="0"/>
</linearGradient>
</defs>
</svg>
