<svg width="101" height="97" viewBox="0 0 101 97" fill="none" xmlns="http://www.w3.org/2000/svg">
<path fill-rule="evenodd" clip-rule="evenodd" d="M101 97.002L0 0H43.7246L101 54.3539V97.002Z" fill="#ED5C2F"/>
<path d="M38.0698 9.70657L39.4651 11.0467L36.9533 17.4024L37.0271 17.4732L43.2762 14.7069L44.6716 16.047L38.6263 22.3415L37.5321 21.2906L41.6853 16.9663L41.6269 16.9102L35.7519 19.5454L34.9343 18.7602L37.3391 12.7744L37.2807 12.7183L33.1187 17.0518L32.0245 16.001L38.0698 9.70657ZM41.7895 25.5567C41.3284 25.1139 41.0263 24.6287 40.883 24.1012C40.7398 23.5736 40.7501 23.038 40.9139 22.4942C41.0798 21.9524 41.3969 21.4376 41.8652 20.95C42.3336 20.4623 42.8361 20.1237 43.3727 19.934C43.9114 19.7463 44.4472 19.7134 44.9801 19.8352C45.513 19.9571 46.01 20.2394 46.471 20.6822C46.932 21.1249 47.2342 21.6101 47.3774 22.1376C47.5207 22.6652 47.5084 23.2009 47.3406 23.7448C47.1748 24.2906 46.8577 24.8074 46.3893 25.295C45.921 25.7827 45.4184 26.1193 44.8817 26.305C44.347 26.4926 43.8132 26.5254 43.2803 26.4036C42.7474 26.2817 42.2505 25.9994 41.7895 25.5567ZM42.6516 24.6713C42.9016 24.9113 43.1765 25.0434 43.4764 25.0675C43.7782 25.0896 44.0823 25.0231 44.3886 24.8683C44.6969 24.7154 44.9888 24.4955 45.2643 24.2086C45.5418 23.9197 45.7507 23.6181 45.891 23.3039C46.0354 22.9895 46.0904 22.682 46.0562 22.3813C46.022 22.0806 45.88 21.8102 45.63 21.5702C45.3739 21.3242 45.0939 21.1892 44.79 21.1652C44.4882 21.1431 44.1821 21.2096 43.8718 21.3645C43.5655 21.5194 43.2736 21.7413 42.9961 22.0302C42.7206 22.3171 42.5117 22.6166 42.3693 22.9289C42.229 23.2432 42.1759 23.5507 42.2101 23.8514C42.2483 24.152 42.3955 24.4253 42.6516 24.6713ZM52.1511 28.6544L51.0306 27.791C51.1003 27.661 51.1426 27.5164 51.1575 27.3574C51.1744 27.2004 51.15 27.0371 51.0843 26.8676C51.0186 26.6982 50.8997 26.5308 50.7275 26.3655C50.496 26.1431 50.2531 26.0064 49.999 25.9553C49.7468 25.9061 49.545 25.9624 49.3936 26.1242C49.2597 26.2595 49.2026 26.4194 49.2224 26.6038C49.2443 26.7903 49.3485 27.0262 49.5351 27.3118L50.175 28.2573C50.5292 28.7826 50.7145 29.254 50.731 29.6716C50.7495 30.0912 50.5975 30.471 50.2748 30.811C49.9874 31.1062 49.6485 31.2848 49.2579 31.3469C48.8714 31.409 48.4655 31.3579 48.0402 31.1937C47.615 31.0295 47.2056 30.7585 46.8122 30.3806C46.2344 29.8257 45.8854 29.2581 45.7652 28.6779C45.647 28.0956 45.7626 27.5547 46.1122 27.0554L47.2975 27.9929C47.142 28.2532 47.092 28.5144 47.1475 28.7765C47.2031 29.0386 47.3589 29.2927 47.615 29.5386C47.8793 29.7925 48.1435 29.9419 48.4077 29.9868C48.6738 30.0336 48.8837 29.9772 49.0372 29.8173C49.167 29.6821 49.222 29.5203 49.2022 29.3318C49.1843 29.1453 49.0894 28.9242 48.9175 28.6685L48.2746 27.726C47.9123 27.1969 47.7298 26.7164 47.7271 26.2844C47.7264 25.8504 47.8924 25.4623 48.225 25.1201C48.5024 24.8271 48.8233 24.6509 49.1878 24.5913C49.5563 24.5316 49.9401 24.5811 50.3391 24.7398C50.7421 24.8985 51.1322 25.1588 51.5092 25.5209C52.0624 26.0522 52.3846 26.5882 52.4759 27.1289C52.5693 27.6715 52.461 28.18 52.1511 28.6544ZM56.7257 30.6491L55.8992 31.5097L53.1853 28.9033L54.0119 28.0427L56.7257 30.6491ZM55.7681 27.5552L56.8807 28.6237L52.6242 33.0556C52.4806 33.2052 52.3929 33.3416 52.3612 33.4648C52.3336 33.5879 52.3439 33.7002 52.3922 33.8017C52.4404 33.9032 52.5106 33.9982 52.6028 34.0868C52.6725 34.1537 52.741 34.2096 52.8082 34.2544C52.8774 34.3013 52.9314 34.3353 52.97 34.3567L52.3221 35.4065C52.243 35.3699 52.1363 35.3108 52.002 35.2291C51.8698 35.1494 51.7229 35.0358 51.5612 34.8884C51.2746 34.629 51.064 34.3459 50.9292 34.0392C50.7964 33.7305 50.7589 33.4148 50.8166 33.0921C50.8765 32.7714 51.0491 32.4646 51.3345 32.1715L55.7681 27.5552ZM55.3182 38.3727L61.3635 32.0782L63.7239 34.3452C64.2075 34.8096 64.5266 35.2894 64.6812 35.7846C64.838 36.2817 64.8488 36.7688 64.7138 37.2457C64.5827 37.7225 64.3254 38.1607 63.9416 38.5602C63.554 38.9639 63.1245 39.2408 62.6534 39.3909C62.1823 39.5411 61.6941 39.5469 61.189 39.4084C60.6859 39.2679 60.1915 38.9644 59.7059 38.4981L58.1415 36.9956L59.0418 36.0582L60.4525 37.4131C60.7353 37.6846 61.0141 37.8578 61.2888 37.9327C61.5636 38.0075 61.8266 38.0002 62.078 37.9107C62.3314 37.8232 62.5654 37.6678 62.7799 37.4444C62.9944 37.2211 63.1392 36.9821 63.2144 36.7274C63.2917 36.4747 63.2844 36.2136 63.1926 35.9442C63.1048 35.6748 62.9185 35.4033 62.6337 35.1297L61.5887 34.1261L56.4585 39.4678L55.3182 38.3727ZM62.742 45.6798C62.2809 45.237 61.9788 44.7519 61.8355 44.2243C61.6923 43.6968 61.7026 43.1611 61.8664 42.6173C62.0323 42.0755 62.3494 41.5608 62.8177 41.0731C63.2861 40.5855 63.7886 40.2468 64.3252 40.0571C64.8639 39.8694 65.3997 39.8365 65.9326 39.9584C66.4655 40.0802 66.9625 40.3625 67.4235 40.8053C67.8845 41.2481 68.1867 41.7332 68.3299 42.2608C68.4732 42.7883 68.4609 43.324 68.2931 43.8679C68.1273 44.4138 67.8102 44.9305 67.3418 45.4182C66.8735 45.9058 66.3709 46.2425 65.8342 46.4281C65.2995 46.6157 64.7657 46.6486 64.2328 46.5267C63.6999 46.4049 63.203 46.1226 62.742 45.6798ZM63.6041 44.7944C63.8541 45.0345 64.129 45.1666 64.4289 45.1907C64.7307 45.2127 65.0348 45.1463 65.3411 44.9914C65.6494 44.8385 65.9413 44.6186 66.2168 44.3318C66.4943 44.0429 66.7032 43.7413 66.8435 43.427C66.9879 43.1127 67.0429 42.8051 67.0087 42.5045C66.9745 42.2038 66.8325 41.9334 66.5825 41.6933C66.3264 41.4473 66.0464 41.3123 65.7425 41.2883C65.4407 41.2663 65.1346 41.3327 64.8243 41.4877C64.518 41.6426 64.2261 41.8644 63.9486 42.1533C63.6731 42.4402 63.4642 42.7398 63.3218 43.0521C63.1815 43.3663 63.1284 43.6738 63.1626 43.9745C63.2008 44.2751 63.348 44.5484 63.6041 44.7944ZM64.3367 50.4374L70.5708 43.9462L71.665 44.9971L70.9152 45.7777L70.9798 45.8397C71.1474 45.7801 71.3454 45.7359 71.5739 45.7072C71.8043 45.6764 72.0529 45.7005 72.3197 45.7795C72.5885 45.8565 72.8612 46.0278 73.1378 46.2934C73.5025 46.6437 73.7419 47.0528 73.8558 47.5206C73.9737 47.9884 73.9446 48.4863 73.7684 49.0143C73.5962 49.5422 73.2582 50.0684 72.7545 50.5929C72.2566 51.1113 71.7485 51.4702 71.2301 51.6695C70.7117 51.8688 70.2145 51.9231 69.7385 51.8322C69.2625 51.7414 68.8391 51.5178 68.4682 51.1617C68.1977 50.9019 68.0167 50.6413 67.925 50.38C67.8333 50.1186 67.7942 49.8723 67.8076 49.641C67.825 49.4095 67.8591 49.2079 67.9099 49.0361L67.8638 48.9918L65.4492 51.5059L64.3367 50.4374ZM69.3949 47.3545C69.1017 47.6598 68.888 47.9686 68.7536 48.2807C68.6213 48.5948 68.5751 48.8951 68.6151 49.1816C68.659 49.468 68.7988 49.7244 69.0345 49.9507C69.2803 50.1869 69.5492 50.3191 69.8411 50.3473C70.135 50.3735 70.4342 50.3122 70.7386 50.1634C71.047 50.0146 71.3429 49.7926 71.6263 49.4975C71.9077 49.2045 72.1156 48.904 72.25 48.5959C72.3844 48.2877 72.4307 47.9894 72.3887 47.701C72.3467 47.4125 72.2017 47.1492 71.9538 46.9111C71.7161 46.6828 71.4543 46.5515 71.1683 46.517C70.8823 46.4826 70.588 46.5368 70.2855 46.6795C69.985 46.8242 69.6882 47.0492 69.3949 47.3545ZM76.3619 54.7666L78.989 52.0312L80.1016 53.0998L75.5677 57.8206L74.4889 56.7845L75.2947 55.9455L75.2455 55.8982C74.8851 56.0602 74.5024 56.1081 74.0972 56.042C73.694 55.9778 73.3152 55.7755 72.9607 55.435C72.6513 55.1379 72.4437 54.8065 72.3379 54.441C72.2361 54.0753 72.2455 53.6964 72.3662 53.3042C72.4888 52.9099 72.7312 52.5243 73.0933 52.1472L75.9801 49.1414L77.0927 50.21L74.3712 53.0437C74.0839 53.3428 73.9375 53.6592 73.9322 53.9929C73.9269 54.3265 74.0574 54.6212 74.3238 54.8771C74.4877 55.0345 74.6849 55.147 74.9153 55.2147C75.1457 55.2824 75.3859 55.2846 75.6357 55.2213C75.8896 55.1579 76.1317 55.0063 76.3619 54.7666ZM83.8696 53.6935L77.8243 59.9879L76.7118 58.9194L82.757 52.625L83.8696 53.6935ZM80.2354 62.4867C79.9363 62.1994 79.718 61.8874 79.5806 61.5506C79.4472 61.2137 79.4122 60.8728 79.4755 60.528C79.541 60.1851 79.7222 59.859 80.0194 59.5496C80.2752 59.2832 80.5359 59.1102 80.8015 59.0305C81.0672 58.9508 81.3352 58.9403 81.6056 58.9992C81.876 59.058 82.1434 59.1631 82.4076 59.3145C82.6759 59.4658 82.9366 59.6393 83.1897 59.8352C83.4939 60.0721 83.7428 60.262 83.9366 60.4048C84.1323 60.5455 84.2927 60.6286 84.4178 60.6542C84.5469 60.6798 84.6626 60.6392 84.765 60.5327L84.7827 60.5143C85.005 60.2827 85.1086 60.0375 85.0933 59.7786C85.078 59.5198 84.9413 59.2663 84.6831 59.0184C84.4106 58.7567 84.1374 58.6085 83.8634 58.5738C83.5915 58.5411 83.3502 58.5792 83.1394 58.6879L82.2423 57.5427C82.5997 57.3345 82.9652 57.2247 83.3387 57.2131C83.7141 57.1995 84.0844 57.2754 84.4494 57.4408C84.8163 57.6042 85.1648 57.8443 85.4946 58.1611C85.7221 58.3796 85.9229 58.6237 86.0971 58.8934C86.2713 59.1631 86.3927 59.449 86.461 59.751C86.5314 60.051 86.5225 60.3596 86.4345 60.6768C86.3485 60.996 86.155 61.3123 85.8539 61.6258L82.8195 64.7854L81.7499 63.7581L82.3727 63.1096L82.3359 63.0742C82.1423 63.1404 81.929 63.1718 81.6958 63.1685C81.4667 63.1651 81.2265 63.1097 80.9752 63.0022C80.7279 62.8947 80.4813 62.7229 80.2354 62.4867ZM81.3095 61.9467C81.5328 62.1611 81.7688 62.3031 82.0173 62.3724C82.2678 62.4397 82.5079 62.4418 82.7377 62.3789C82.9696 62.318 83.1691 62.2004 83.3364 62.0263L83.8707 61.47C83.8083 61.4652 83.7233 61.4348 83.6157 61.3787C83.5101 61.3246 83.3972 61.2575 83.2771 61.1776C83.1569 61.0976 83.0397 61.0166 82.9256 60.9345C82.8114 60.8524 82.7125 60.7811 82.6289 60.7205C82.4413 60.5836 82.2573 60.4779 82.077 60.4031C81.8967 60.3284 81.7243 60.3007 81.5599 60.3201C81.3975 60.3375 81.2475 60.4179 81.1097 60.5613C80.9129 60.7662 80.8392 60.9927 80.8884 61.2409C80.9376 61.489 81.078 61.7243 81.3095 61.9467ZM83.9382 65.8598L88.4722 61.139L89.551 62.1751L88.7953 62.9619L88.8445 63.0091C89.1923 62.8192 89.5415 62.7509 89.8922 62.8041C90.2469 62.8572 90.5594 63.0136 90.8299 63.2734C90.8914 63.3324 90.9571 63.4014 91.027 63.4804C91.1009 63.5593 91.1586 63.6284 91.1999 63.6879L90.217 64.7113C90.1856 64.6497 90.1246 64.5635 90.034 64.4528C89.9473 64.3421 89.8569 64.2414 89.7626 64.1509C89.5598 63.9561 89.3351 63.825 89.0886 63.7576C88.8462 63.6902 88.605 63.689 88.3652 63.7542C88.1255 63.8193 87.9091 63.9522 87.7163 64.153L85.0508 66.9284L83.9382 65.8598Z" fill="white"/>
</svg>
