<svg width="216" height="216" viewBox="0 0 216 216" fill="none" xmlns="http://www.w3.org/2000/svg">
<circle cx="108" cy="108" r="108" fill="url(#paint0_linear_1_656)"/>
<g opacity="0.6">
<mask id="mask0_1_656" style="mask-type:alpha" maskUnits="userSpaceOnUse" x="0" y="0" width="216" height="216">
<circle cx="108" cy="108" r="108" fill="url(#paint1_linear_1_656)"/>
</mask>
<g mask="url(#mask0_1_656)">
<mask id="mask1_1_656" style="mask-type:alpha" maskUnits="userSpaceOnUse" x="0" y="0" width="216" height="216">
<circle cx="108" cy="108" r="108" fill="url(#paint2_linear_1_656)"/>
</mask>
<g mask="url(#mask1_1_656)">
</g>
<g clip-path="url(#clip0_1_656)">
<path opacity="0.2" d="M203.257 240.389C201.607 232.249 199.933 224.11 198.19 215.994C195.796 204.91 193.193 193.895 190.288 182.95C192.124 180.978 193.82 178.891 195.424 176.758C196.795 174.949 198.167 172.584 197.167 170.543C196.586 169.384 195.378 168.711 194.355 167.946C186.011 161.848 186.243 148.259 177.83 142.276C175.691 140.745 172.763 139.586 169.602 138.983C166.999 136.595 165.488 132.954 164.256 129.522C160.095 117.974 156.33 106.101 155.726 93.8341C155.331 85.7875 156.237 77.2772 152.449 70.1581C149.822 65.1725 145.197 61.555 141.92 56.9868C138.805 52.6272 136.946 47.4793 133.715 43.1893C130.903 39.4327 127.068 34.0992 122.745 32.2441C119.932 31.0382 109.078 28.2556 106.15 29.0904C104.197 29.6469 102.687 29.9715 101.385 30.3658C101.269 30.2962 101.153 30.1802 101.036 30.1107C99.2234 28.928 97.1316 28.0237 94.9468 28.0005C90.5772 27.9541 86.9746 31.2933 84.1622 34.6325C80.8386 38.5747 77.8868 45.114 74.935 49.3344C70.0308 56.3375 65.1266 63.3637 60.2225 70.3668C58.8047 72.3843 57.3869 74.4249 56.5502 76.7206C54.1329 83.2831 56.7593 90.4949 58.8744 97.1733C63.6159 112.223 65.452 129.151 58.7814 143.389C54.9464 143.598 51.1347 143.899 47.5785 145.244C34.7022 150.16 29.7283 166.81 17.2238 172.607C19.1065 177.918 22.4302 182.625 26.6835 186.312C25.8933 188.167 25.2193 189.999 24.522 191.483C18.2 204.956 12.7148 218.777 7.22956 232.597C4.64965 239.183 2 245.954 2 253.004C2 257.154 2.9297 261.236 3.83616 265.271C4.76586 269.329 5.69556 273.456 7.55496 277.19C8.90302 279.903 10.6927 282.338 12.3429 284.865C22.1977 299.799 27.5203 317.191 34.4 333.701C34.9579 335.046 35.7714 336.554 36.8638 337.435C35.1206 380.543 46.0445 422.724 48.3456 465.879C52.6454 466.157 56.9453 466.343 61.2451 466.482C61.4776 467.873 61.6635 469.218 61.7332 470.424C62.8721 486.076 59.4322 501.706 60.9197 517.358C61.803 526.82 64.5223 536.002 67.2185 545.116C72.6805 563.597 78.1424 582.102 84.6039 600.282C86.9978 606.961 89.508 613.639 90.9258 620.596C94.5284 638.405 90.6237 656.724 89.8567 674.881C89.8102 676.064 89.7869 677.339 90.3912 678.36C91.042 679.473 92.2971 680.076 93.5057 680.516C98.7353 682.441 104.639 682.464 109.892 680.609C111.867 679.913 113.82 678.893 115.052 677.177C115.609 676.389 116.004 675.484 116.26 674.557C116.423 675.368 116.679 676.18 117.097 676.899C118.887 680.006 123.024 680.679 126.626 680.771C131.205 680.887 135.807 680.563 140.339 679.797C141.873 679.542 143.477 679.218 144.709 678.244C147.219 676.273 147.266 672.539 146.94 669.362C144.872 648.887 136.992 629.106 137.062 608.538C137.155 581.43 151.054 554.901 146.522 528.164C145.801 523.875 144.593 519.654 144.291 515.318C143.988 510.958 144.57 506.576 145.174 502.239C146.963 489.161 148.753 476.082 150.566 463.003C150.729 461.844 150.938 460.615 151.147 459.339C156.958 458.087 162.652 456.348 167.44 452.916C162.908 452.707 159.259 448.765 157.911 444.452C156.563 440.139 157.051 435.478 157.539 430.979C159.886 409.483 162.257 387.917 166.789 366.769C169.695 353.296 173.437 339.359 173.785 325.747C174.087 325.423 174.343 325.075 174.599 324.727C181.176 315.498 186.499 305.434 191.264 295.161C194.471 288.228 197.423 281.201 200.142 274.059C202.676 267.404 205 260.517 205.023 253.398C205.023 249.015 204.163 244.679 203.28 240.389H203.257ZM61.5473 142.67C66.1958 133.998 67.2882 123.493 64.5456 114.032C69.3568 122.681 69.4033 132.884 67.2185 142.717C65.2196 143.018 63.1975 143.157 61.1754 143.273C61.3149 143.088 61.4543 142.879 61.5705 142.67H61.5473ZM33.726 281.132C32.3315 272.598 31.2391 264.018 30.4721 255.392C30.2396 252.911 30.0537 250.406 30.3559 247.948C30.7045 244.887 31.7969 241.989 32.8893 239.113C37.8864 225.78 42.9068 212.469 47.9039 199.135C53.5286 212.423 59.1301 225.687 64.7548 238.974C65.9634 241.826 67.1952 244.864 66.8466 247.948C66.6606 249.641 66.0098 251.218 65.3591 252.795C59.9436 265.92 54.5281 279.045 49.1126 292.147C47.2299 296.692 45.3705 301.283 43.6506 305.944C37.5843 299.729 35.1903 290.036 33.726 281.155V281.132ZM113.518 620.758C108.241 600.027 108.567 578.647 109.915 557.128C110.124 558.217 110.333 559.284 110.542 560.374C114.354 581.151 114.308 602.323 114.261 623.495C114.006 622.59 113.75 621.686 113.518 620.758ZM180.154 259.868C179.689 263.856 178.364 267.682 177.063 271.462C174.087 280.019 171.089 288.552 167.673 296.924C166.185 293.863 164.581 290.871 163.024 287.857C158.213 278.627 147.777 253.166 144.941 251.751C144.895 246.511 147.335 241.293 149.52 236.516C155.517 223.484 160.072 209.826 163.256 195.843C163.954 195.773 164.721 195.657 165.488 195.518C165.627 195.843 165.767 196.167 165.906 196.515C168.974 203.982 170.903 211.843 172.809 219.681C174.529 226.777 176.226 233.873 177.923 240.968C179.41 247.183 180.898 253.537 180.177 259.868H180.154Z" fill="black"/>
</g>
</g>
</g>
<defs>
<linearGradient id="paint0_linear_1_656" x1="-46.2857" y1="146.571" x2="239.143" y2="146.571" gradientUnits="userSpaceOnUse">
<stop stop-color="#ED5C2F"/>
<stop offset="0.510417" stop-color="#F28230"/>
<stop offset="1" stop-color="#FAB331"/>
</linearGradient>
<linearGradient id="paint1_linear_1_656" x1="-46.2857" y1="146.571" x2="239.143" y2="146.571" gradientUnits="userSpaceOnUse">
<stop stop-color="#ED5C2F"/>
<stop offset="0.510417" stop-color="#F28230"/>
<stop offset="1" stop-color="#FAB331"/>
</linearGradient>
<linearGradient id="paint2_linear_1_656" x1="-46.2857" y1="146.571" x2="239.143" y2="146.571" gradientUnits="userSpaceOnUse">
<stop stop-color="#ED5C2F"/>
<stop offset="0.510417" stop-color="#F28230"/>
<stop offset="1" stop-color="#FAB331"/>
</linearGradient>
<clipPath id="clip0_1_656">
<rect width="203" height="654" fill="white" transform="translate(2 28)"/>
</clipPath>
</defs>
</svg>
