<svg width="216" height="216" viewBox="0 0 216 216" fill="none" xmlns="http://www.w3.org/2000/svg">
<circle cx="108" cy="108" r="108" fill="url(#paint0_linear_1_642)"/>
<g opacity="0.6">
<mask id="mask0_1_642" style="mask-type:alpha" maskUnits="userSpaceOnUse" x="0" y="0" width="216" height="216">
<circle cx="108" cy="108" r="108" fill="url(#paint1_linear_1_642)"/>
</mask>
<g mask="url(#mask0_1_642)">
<g opacity="0.25" clip-path="url(#clip0_1_642)">
<path d="M205.816 452.596C205.986 452.143 206.128 451.689 206.242 451.236C207.546 445.855 204.71 440.418 201.987 435.688C201.562 434.924 201.136 434.131 200.711 433.31C203.207 431.469 205.618 429.486 208.028 427.504C198.3 397.937 199.463 365.482 192.77 334.925C192.316 332.829 191.805 330.677 191.89 328.524C192.032 324.56 193.734 319.575 190.699 317.395C193.961 316.488 193.393 311.362 192.713 307.766C192.089 304.509 192.004 301.139 191.975 297.797C191.777 275.934 193.337 254.07 196.627 232.49C198.385 221.049 200.597 209.324 198.385 197.968C197.194 191.936 191.748 179.305 184.771 176.699C183.665 175.991 182.502 175.368 181.311 174.773C172.916 170.582 164.18 167.184 155.161 164.55C147.844 162.426 139.137 159.707 137.066 152.4C136.329 149.823 136.414 146.708 135.052 144.584C137.066 144.98 139.08 145.377 141.065 145.773C143.306 146.198 145.887 146.566 147.645 145.122C149.205 143.819 149.517 141.582 149.602 139.571C149.744 136.598 149.687 133.624 149.404 130.65C149.29 129.546 149.177 128.356 149.659 127.365C150.169 126.317 151.332 125.468 151.276 124.307C151.219 123.372 150.368 122.494 150.68 121.616C150.822 121.22 151.191 120.937 151.474 120.625C153.233 118.529 150.822 115.018 152.268 112.695C152.836 111.761 153.885 111.251 154.764 110.6C155.643 109.948 156.381 108.815 155.984 107.796C155.814 107.399 155.502 107.06 155.19 106.748C152.694 104.228 150.51 101.282 149.46 97.8838C148.411 94.4853 148.61 90.6055 150.595 87.6602C150.907 87.207 151.247 86.7539 151.389 86.2158C151.559 85.5078 151.304 84.7998 151.077 84.1201C148.808 77.7197 146.738 71.2061 144.298 64.8623C144.951 64.8057 145.603 64.749 146.227 64.6641C147.135 64.5508 148.071 64.4092 148.751 63.8144C150.453 62.3135 149.148 59.5664 147.787 57.7822C149.035 58.6885 150.935 57.5557 151.332 56.0547C151.758 54.582 151.162 52.9961 150.567 51.5801C149.205 48.3516 147.645 45.208 145.915 42.1494C146.624 42.1211 147.333 42.0928 148.042 42.0361C146.709 37.3066 142.115 33.6533 137.208 33.4268C134.599 33.3135 131.847 34.0215 129.38 33.1435C127.82 32.5771 126.515 31.3877 124.984 30.7363C123.084 29.915 120.956 29.9717 118.886 30.0283C112.987 30.1982 107.116 30.3682 101.216 30.5664C94.6079 30.7646 87.5741 31.0762 82.1285 34.8428C81.2493 35.4375 80.3701 36.1455 79.3207 36.2305C78.5266 36.2871 77.7324 35.9756 76.9383 35.9473C75.8321 35.9189 74.7827 36.457 73.8468 37.0518C67.9758 40.7617 63.2393 47.9268 62.9557 55.0068C62.899 56.6494 63.1542 58.0088 63.6931 59.1416C62.5586 61.0674 61.5092 63.0781 60.2897 65.0889C58.5028 68.0625 57.7087 71.291 57.8221 74.7461C57.964 78.8525 59.1835 82.8174 60.3747 86.7256C62.8139 94.627 65.2814 102.585 69.1954 109.892C72.4003 115.896 76.5696 121.446 78.6116 127.932C79.973 132.293 80.3417 136.881 80.4835 141.469C79.2923 141.214 78.1011 141.072 76.8815 141.157C75.6903 144.641 74.4707 148.124 73.2795 151.607C72.8541 152.854 72.3436 154.185 71.1807 154.836C70.3299 155.317 69.3088 155.289 68.3729 155.516C67.0115 155.855 65.8486 156.705 64.7141 157.526C47.5267 169.959 27.6448 178.653 6.85527 182.845C5.94768 183.043 4.92664 183.27 4.38776 184.034C4.24595 184.232 4.16087 184.459 4.10414 184.686C3.93397 184.572 3.82052 184.544 3.76379 184.601C-0.830883 189.358 -2.22063 196.24 -3.52529 202.697C-9.93515 234.218 -19.2663 265.115 -31.377 294.908C-33.3623 299.779 -35.4328 304.707 -35.9433 309.946C-36.3404 314.081 -35.7448 318.216 -35.1208 322.322C-34.6954 325.239 -34.2416 328.213 -33.1638 330.96C-31.8024 334.443 -29.4483 337.445 -27.1226 340.391C-12.6296 358.827 1.83516 377.264 16.3283 395.672C16.782 396.267 17.2926 396.861 17.9733 397.173C19.0794 397.626 20.3557 397.116 21.4051 396.55C22.0574 396.21 22.6247 395.813 23.2486 395.445C24.1846 396.635 25.1773 397.768 26.1416 398.872C25.6594 405.811 25.1205 412.721 24.6951 419.801C23.9293 432.233 21.008 444.411 18.1718 456.532C17.6329 458.826 17.1224 461.375 18.2569 463.471C19.1645 465.142 20.9229 466.104 22.5963 467.011C26.5103 469.106 30.4526 471.202 34.4517 473.1C35.5295 476.583 36.7774 479.84 37.5432 482.304C42.1095 497.03 46.6758 511.785 51.2421 526.512L66.3308 575.194C68.855 583.294 71.3793 591.62 71.124 600.173C71.0106 603.458 70.5284 606.913 71.8898 609.858C72.5988 611.359 73.7333 612.577 74.6409 613.965C76.7964 617.25 77.5339 621.356 78.0444 625.35C78.1578 626.171 78.2146 626.992 78.2996 627.813C77.1935 633.676 76.0874 639.538 75.0096 645.4C73.3363 654.378 71.6345 663.412 71.4644 672.56C71.4076 675.93 71.5494 679.385 70.6419 682.613C69.1103 688.164 64.3454 692.525 59.0134 693.205C62.3601 703.061 65.7352 713.426 64.4022 723.819C63.4946 730.814 60.7434 738.857 64.4305 744.408C64.3171 748.203 64.232 751.97 64.1469 755.765C64.0902 758.115 64.0335 760.522 64.6291 762.788C65.4799 765.988 67.6071 768.65 70.1881 770.463C72.769 772.275 75.747 773.267 78.7534 773.861C78.7534 772.615 79.264 771.369 80.1432 770.548C82.6107 771.907 83.9721 774.824 84.9364 777.628C85.9007 780.432 86.6381 783.462 88.4249 785.728C89.7012 787.342 91.4313 788.446 93.1331 789.437C100.252 793.572 108.08 796.319 116.078 797.509C118.659 797.877 121.297 798.075 123.849 797.764C126.742 800.341 129.635 802.918 132.528 805.495C132.84 808.072 133.322 810.678 133.691 813.255C134.202 817.021 134.4 820.873 134.23 824.668C134.031 828.916 133.663 833.844 136.584 836.676C137.35 837.412 138.257 837.894 139.165 838.375C148.723 843.133 160.125 843.303 169.796 838.8C171.101 838.205 172.377 837.497 173.37 836.393C175.667 833.844 175.752 829.766 175.015 826.282C173.71 820.108 170.363 814.756 167.726 809.092C165.627 804.561 164.152 799.35 162.223 794.478C162.706 794.394 163.159 794.309 163.642 794.252C164.294 786.322 164.918 778.393 165.57 770.463C165.769 767.971 165.939 765.28 164.776 763.1C162.592 759.078 156.608 758.285 155.473 753.782C154.878 751.46 155.899 749.053 156.352 746.702C157.856 739.084 153.686 731.692 150.481 724.697C144.554 711.783 141.519 697.34 141.746 682.925C141.774 680.234 141.944 677.544 141.746 674.853C141.547 672.078 140.98 669.359 140.47 666.641C139.59 661.996 138.825 657.352 138.059 652.679C136.329 642.087 134.599 631.467 132.869 620.875C133.606 618.723 134.287 616.542 134.826 614.333C135.535 611.274 136.102 607.989 138.087 605.695C138.654 605.016 139.363 604.449 139.846 603.713C140.583 602.58 140.81 601.164 141.008 599.776C144.724 575.109 152.07 551.264 157.26 526.908C160.578 511.36 162.989 495.501 162.989 479.528C162.989 474.714 163.386 468.512 163.216 462.281C166.676 460.072 170.08 457.75 173.398 455.314C173.256 450.103 173.171 444.836 173.086 439.568C173.426 439.738 173.795 439.908 174.136 440.021C173.994 441.749 173.937 443.477 174.079 445.204C174.561 450.953 176.716 456.391 177.284 462.14C177.652 465.85 177.369 469.645 176.631 473.298C176.234 475.365 175.695 477.518 176.178 479.557C177.057 483.125 180.659 484.966 184.006 485.645C186.615 486.184 189.394 486.269 191.834 485.136C194.273 484.003 196.286 481.454 196.315 478.565C196.4 480.803 197.109 483.635 199.151 483.833C201.023 484.003 202.186 481.709 202.866 479.811L205.844 471.372C206.724 468.88 207.603 466.331 207.773 463.669C207.887 461.545 207.546 459.421 207.064 457.325C206.695 455.768 206.242 454.21 205.731 452.709L205.816 452.596ZM7.9614 315.44C9.49296 315.072 10.9962 314.704 12.5277 314.336C11.6485 312.637 10.7409 310.909 9.86167 309.21C11.2231 306.378 12.6695 303.574 14.1444 300.771C18.8241 316.687 28.0702 330.762 31.4737 347.272C31.5304 347.556 31.5871 347.867 31.6438 348.15C21.4334 335.746 9.71986 320.425 7.9614 315.412V315.44Z" fill="black"/>
</g>
</g>
</g>
<defs>
<linearGradient id="paint0_linear_1_642" x1="-46.2857" y1="146.571" x2="239.143" y2="146.571" gradientUnits="userSpaceOnUse">
<stop stop-color="#ED5C2F"/>
<stop offset="0.510417" stop-color="#F28230"/>
<stop offset="1" stop-color="#FAB331"/>
</linearGradient>
<linearGradient id="paint1_linear_1_642" x1="-46.2857" y1="146.571" x2="239.143" y2="146.571" gradientUnits="userSpaceOnUse">
<stop stop-color="#ED5C2F"/>
<stop offset="0.510417" stop-color="#F28230"/>
<stop offset="1" stop-color="#FAB331"/>
</linearGradient>
<clipPath id="clip0_1_642">
<rect width="244" height="812" fill="white" transform="translate(-36 30)"/>
</clipPath>
</defs>
</svg>
