<svg width="101" height="100" viewBox="0 0 101 100" fill="none" xmlns="http://www.w3.org/2000/svg">
<path fill-rule="evenodd" clip-rule="evenodd" d="M71.073 18.5225C70.102 8.15383 61.1662 0 50.4447 0C39.7248 0 30.8931 8.15154 29.9316 18.5225H19.2266H19.2213C18.1742 18.5225 17.327 19.3613 17.327 20.3981C17.327 20.4458 17.3288 20.4931 17.3323 20.5398V45.4021C17.3323 46.4389 18.1795 47.2777 19.2266 47.2777C20.2737 47.2777 21.1208 46.4389 21.1208 45.4021V22.2738H29.9307C30.8304 32.0313 38.6972 39.8226 48.5505 40.7159V45.4021C48.5505 46.4389 49.3977 47.2777 50.4448 47.2777C51.4919 47.2777 52.339 46.4389 52.339 45.4021V40.7116C62.2501 39.8225 70.1657 32.0283 71.0735 22.2738H79.8792V45.4021C79.8792 46.4389 80.7263 47.2777 81.7734 47.2777C82.8205 47.2777 83.6676 46.4389 83.6676 45.4021V20.416C83.6677 20.4101 83.6677 20.4041 83.6677 20.3981C83.6677 19.8797 83.4559 19.4108 83.1132 19.0715C82.7705 18.7322 82.297 18.5225 81.7735 18.5225C81.7734 18.5225 81.7734 18.5225 81.7734 18.5225H71.073ZM67.3713 20.2656C67.2959 11.1432 59.7325 3.75137 50.4447 3.75137C41.1735 3.75137 33.6281 11.2176 33.6281 20.4033C33.6281 29.5446 41.0957 36.9832 50.3107 37.0547C50.355 37.0516 50.3997 37.05 50.4448 37.05C50.4898 37.05 50.5345 37.0516 50.5788 37.0547C59.7517 36.9835 67.3009 29.6142 67.3714 20.5316C67.3683 20.4875 67.3667 20.443 67.3667 20.3981C67.3667 20.3536 67.3683 20.3094 67.3713 20.2656ZM81.7734 77.3929C74.8752 77.3929 69.3188 68.968 69.3188 61.9967C69.3188 55.0254 74.9068 49.6641 81.7734 49.6641C88.6401 49.6641 94.1123 55.1973 94.1123 61.9967C94.1123 68.796 88.6085 77.3929 81.7734 77.3929ZM81.7734 53.4154C76.9957 53.4154 73.1073 57.2658 73.1073 61.9967C73.1073 67.0819 77.3062 73.6468 81.7734 73.6468C86.2407 73.6468 90.3238 67.0871 90.3238 61.9967C90.3238 57.2658 86.488 53.4154 81.7734 53.4154ZM81.7208 100C75.6067 100 69.4977 98.9423 63.6782 96.827C62.931 96.556 62.4364 95.8527 62.4364 95.0659V85.75C62.4364 81.3734 65.1567 77.6481 70.5238 74.6783C71.4341 74.1677 72.5916 74.4959 73.102 75.4025C73.6124 76.3091 73.2862 77.4501 72.3707 77.9555C68.2349 80.2428 66.2249 82.7958 66.2249 85.7552V93.7477C76.2696 97.0979 87.1773 97.0979 97.2115 93.7477V85.7552C97.2115 82.8219 95.2331 80.2689 91.1605 77.9451C90.2555 77.4293 89.945 76.283 90.4659 75.3869C90.9869 74.4907 92.1392 74.1781 93.0495 74.6991C98.4007 77.7471 101 81.3682 101 85.7552V95.0711C101 95.8579 100.505 96.5613 99.7583 96.8322C93.944 98.9475 87.8298 100.005 81.7208 100.005V100ZM32.4547 96.8216C38.2374 98.9266 44.2779 99.9843 50.4921 99.9843V99.979C52.8231 99.979 55.1856 99.8279 57.5639 99.531C58.5952 99.4059 59.3319 98.4629 59.2003 97.4365C59.0688 96.4152 58.1111 95.691 57.0851 95.8161C49.4292 96.78 42.0101 96.0766 35.0014 93.7372V85.7447C35.0014 82.8113 36.9798 80.2583 41.0524 77.9346C41.9575 77.4187 42.2679 76.2725 41.747 75.3763C41.2261 74.4854 40.079 74.1676 39.1635 74.6886C33.8122 77.7366 31.2129 81.3525 31.2129 85.7447V95.0606C31.2129 95.8473 31.7128 96.5507 32.4547 96.8216ZM61.2051 78.664C61.3998 78.7265 61.5997 78.7578 61.7997 78.7578L61.7944 78.7526C62.5837 78.7526 63.3098 78.2628 63.5781 77.4813C63.9149 76.507 63.3835 75.4441 62.3995 75.1002C62.2937 75.0653 62.0238 74.887 61.8487 74.7713L61.826 74.7563C60.963 74.1832 59.7844 74.4072 59.2003 75.2669C58.6163 76.1318 58.8478 77.2937 59.716 77.872C60.1159 78.1378 60.6105 78.466 61.2051 78.664ZM50.4447 77.3929C43.6097 77.3929 38.1058 68.968 38.1058 61.9967C38.1058 55.0254 43.6412 49.6641 50.4447 49.6641C57.2482 49.6641 62.8994 55.1973 62.8994 61.9967C62.8994 68.796 57.3429 77.3929 50.4447 77.3929ZM50.4447 53.4154C45.7302 53.4154 41.8943 57.2658 41.8943 61.9967C41.8943 67.0819 46.0406 73.6468 50.4447 73.6468C54.8488 73.6468 59.1109 67.0871 59.1109 61.9967C59.1109 57.2658 55.2224 53.4154 50.4447 53.4154ZM1.24178 96.8216C7.02449 98.9266 13.065 99.9843 19.2792 99.9843V99.979C21.6102 99.979 23.9727 99.8279 26.351 99.531C27.3823 99.4059 28.119 98.4629 27.9874 97.4365C27.8559 96.4152 26.8983 95.691 25.8722 95.8161C18.2321 96.7748 10.8024 96.0766 3.78849 93.7372V85.7447C3.78849 82.8113 5.76692 80.2583 9.83954 77.9346C10.7446 77.4187 11.055 76.2725 10.5341 75.3763C10.0132 74.4854 8.85559 74.1676 7.95056 74.6886C2.59932 77.7366 0 81.3525 0 85.7447V95.0606C0 95.8473 0.49987 96.5507 1.24178 96.8216ZM29.9869 78.664C30.1816 78.7265 30.3868 78.7578 30.5815 78.7578H30.5868C31.3708 78.7578 32.1022 78.2628 32.3705 77.4813C32.702 76.507 32.1706 75.4389 31.1866 75.1002C31.0709 75.0637 30.7709 74.8657 30.6078 74.7563C29.7396 74.1832 28.5662 74.4072 27.9822 75.2669C27.3981 76.1318 27.6296 77.2937 28.4978 77.872C28.8925 78.1378 29.3923 78.466 29.9869 78.664ZM19.2266 77.3929C12.3284 77.3929 6.77191 68.968 6.77191 61.9967C6.77191 55.0254 12.3599 49.6641 19.2266 49.6641C26.0932 49.6641 31.6812 55.1973 31.6812 61.9967C31.6812 68.796 26.1248 77.3929 19.2266 77.3929ZM19.2266 53.4154C14.4489 53.4154 10.5604 57.2658 10.5604 61.9967C10.5604 67.0819 14.7593 73.6468 19.2266 73.6468C23.6938 73.6468 27.8927 67.0871 27.8927 61.9967C27.8927 57.2658 24.0043 53.4154 19.2266 53.4154ZM48.9504 28.0727C48.3769 28.0727 47.8297 27.8122 47.4666 27.3641L42.9888 21.7944C42.3364 20.9868 42.4732 19.8041 43.294 19.158C44.1096 18.5119 45.2987 18.6474 45.9565 19.4602L48.7926 22.9875L54.9383 13.5831C55.5066 12.7129 56.6853 12.4629 57.5534 13.0256C58.4322 13.5883 58.6847 14.7501 58.1165 15.615L50.5395 27.2078C50.208 27.7132 49.6502 28.0362 49.0451 28.0623H48.9504V28.0727Z" fill="url(#paint0_linear_111_3677)"/>
<defs>
<linearGradient id="paint0_linear_111_3677" x1="0" y1="100.005" x2="101" y2="100.005" gradientUnits="userSpaceOnUse">
<stop stop-color="#ED5C2F"/>
<stop offset="0.510417" stop-color="#F28230"/>
<stop offset="1" stop-color="#FAB331"/>
</linearGradient>
</defs>
</svg>
