<svg width="101" height="101" viewBox="0 0 101 101" fill="none" xmlns="http://www.w3.org/2000/svg">
<path fill-rule="evenodd" clip-rule="evenodd" d="M55.6095 76.0342H69.6118L69.6224 76.0238C70.4538 76.0238 71.1852 75.4871 71.4325 74.7056L73.1006 69.3602C74.8055 68.7663 76.2841 68.1671 77.626 67.5159L82.4986 70.1157C83.2195 70.5012 84.1404 70.3814 84.735 69.7926L94.7171 59.9093C95.3065 59.3206 95.4433 58.4245 95.0434 57.6899L92.4176 52.8759C93.1017 51.49 93.7226 49.9739 94.2962 48.2859L99.6477 46.749C100.453 46.5145 101.011 45.7799 101.011 44.9463V31.0826C101.011 30.2595 100.469 29.5353 99.6793 29.2904L94.2856 27.6441C93.6858 25.9456 93.0754 24.4816 92.4176 23.1479L95.0539 18.2088C95.4433 17.4742 95.3065 16.5781 94.7119 15.9946L84.7297 6.22069C84.1299 5.6476 83.2248 5.51214 82.4934 5.9081L77.6312 8.50787C76.2841 7.85141 74.8108 7.25227 73.0953 6.65833L71.4325 1.31812C71.1852 0.536626 70.4538 0 69.6224 0H55.62C54.7886 0 54.0572 0.536626 53.8099 1.32333L52.1471 6.65833C50.4422 7.25227 48.9635 7.85662 47.6164 8.50787L42.7543 5.9081C42.0229 5.51735 41.1125 5.6476 40.5179 6.22069L30.5358 15.9946C29.9412 16.5781 29.8043 17.4742 30.1937 18.2088L32.8248 23.1479C32.167 24.4868 31.5566 25.9508 30.9567 27.6441L25.5579 29.2956C24.7686 29.5405 24.2266 30.2647 24.2266 31.0878V44.9515C24.2266 45.7851 24.7843 46.5197 25.5894 46.7542L30.941 48.2911C31.5145 49.9792 32.1354 51.4953 32.8195 52.8811L30.1937 57.7003C29.7938 58.4245 29.9306 59.3258 30.52 59.9146L40.5021 69.7979C41.0915 70.3866 42.0123 70.5168 42.7385 70.1209L47.6059 67.5263C48.9583 68.1828 50.4316 68.7819 52.1365 69.3706L53.7994 74.7109C54.0414 75.4976 54.7781 76.0342 55.6095 76.0342ZM68.2174 72.283H57.025L55.4885 67.3544C55.3043 66.7761 54.8518 66.3176 54.2729 66.13C51.9576 65.3694 50.1159 64.6139 48.4741 63.7543C47.9164 63.4625 47.2376 63.4521 46.6903 63.7595L42.1912 66.1613L34.2034 58.2526L36.6292 53.7981C36.9344 53.251 36.9344 52.5893 36.6398 52.0319C35.7452 50.3595 34.9664 48.4526 34.2508 46.2071C34.0614 45.608 33.5772 45.1495 32.9721 44.9724L28.0205 43.5449V32.4737L33.0037 30.9524C33.5825 30.77 34.0456 30.322 34.235 29.7489C35.0085 27.4513 35.7715 25.6278 36.6345 24.0127C36.9292 23.4605 36.9292 22.804 36.6345 22.257L34.1982 17.693L42.1807 9.87288L46.685 12.2799C47.2428 12.5821 47.9164 12.5821 48.4741 12.2903C50.1159 11.4307 51.9576 10.6752 54.2729 9.90935C54.857 9.72179 55.3043 9.26331 55.4885 8.68501L57.025 3.76159H68.2332L69.7697 8.69022C69.9539 9.26331 70.4064 9.72179 70.9852 9.90935C73.3111 10.6752 75.1475 11.4359 76.7735 12.2903C77.3365 12.5768 78.0048 12.5821 78.5626 12.2799L83.0722 9.87288L91.0547 17.6878L88.6131 22.257C88.3185 22.804 88.3185 23.4605 88.6131 24.0127C89.4761 25.6226 90.2444 27.4409 91.0179 29.7437C91.2073 30.322 91.6704 30.7648 92.2492 30.9472L97.2271 32.4685V43.5396L92.2808 44.9672C91.6757 45.1391 91.1916 45.6028 91.0021 46.2019C90.2865 48.4474 89.5024 50.3543 88.6079 52.0267C88.3079 52.5789 88.3079 53.2458 88.6131 53.7981L91.039 58.2474L83.0459 66.1561L78.5468 63.7543C77.989 63.4625 77.3208 63.4625 76.763 63.7543C75.1317 64.6087 73.29 65.3642 70.9695 66.13C70.3854 66.3176 69.9381 66.7761 69.7539 67.3492L68.2174 72.283ZM30.7041 100.011H21.4061C20.5694 100.011 19.8274 99.469 19.5907 98.6667L18.6224 95.4469C17.8016 95.1812 16.9649 94.8478 16.1387 94.4518L13.1078 96.0356C12.3658 96.4316 11.4608 96.2857 10.8714 95.697L4.33068 89.1064C3.75185 88.5177 3.6203 87.6163 4.02021 86.8922L5.60409 84.0163C5.23049 83.2504 4.87793 82.4324 4.55694 81.578L1.34183 80.6089C0.547254 80.3693 0 79.6399 0 78.8167V69.6107C0 68.7875 0.541992 68.0581 1.34183 67.8185L4.55694 66.8442C4.88319 65.9846 5.23049 65.1666 5.61462 64.3955L4.01495 61.3946C3.62556 60.6652 3.76237 59.7743 4.34646 59.1908L10.8872 52.7148C11.4713 52.1365 12.3764 51.9958 13.1131 52.3866L16.144 53.9704C16.9175 53.5953 17.7489 53.2462 18.6172 52.9232L19.5959 49.7399C19.838 48.9532 20.5747 48.4114 21.4061 48.4114H23.5898C24.637 48.4114 25.4842 49.2502 25.4842 50.287C25.4842 51.3237 24.637 52.1625 23.5898 52.1625H22.811L21.9586 54.929C21.7797 55.5073 21.3324 55.9658 20.743 56.1586C19.3749 56.6119 18.1278 57.1433 17.0333 57.7268C16.4755 58.029 15.802 58.0342 15.2442 57.7372L12.5816 56.3409L8.01938 60.858L9.42961 63.4942C9.72429 64.0517 9.72429 64.7133 9.42435 65.2656C8.82448 66.3597 8.28775 67.5945 7.83521 68.9386C7.64051 69.5117 7.17745 69.965 6.59336 70.1421L3.79921 70.9861V77.4152L6.59336 78.2592C7.17745 78.4364 7.64051 78.8792 7.83521 79.4627C8.29301 80.8173 8.82974 82.0521 9.41909 83.1358C9.72955 83.6932 9.72955 84.3705 9.41909 84.928L8.02464 87.4548L12.5921 92.0604L15.2495 90.6694C15.8125 90.3776 16.4808 90.3776 17.0386 90.6798C18.233 91.3206 19.4644 91.8104 20.6115 92.0917C21.2587 92.2532 21.7797 92.7429 21.9691 93.3786L22.8268 96.2388H29.2992L30.1621 93.3733C30.3516 92.7377 30.8725 92.248 31.5197 92.0917C32.6563 91.8104 33.8929 91.3206 35.0927 90.6746C35.6557 90.3724 36.324 90.3724 36.8818 90.6642L39.5391 92.0552L44.1066 87.4496L42.7122 84.9228C42.407 84.3653 42.407 83.688 42.7122 83.1306C43.3594 81.9479 43.854 80.7288 44.1382 79.593C44.3013 78.9522 44.7959 78.4364 45.4379 78.2488L48.3268 77.3996V76.6337C48.3268 75.597 49.174 74.7582 50.2211 74.7582C51.2683 74.7582 52.1155 75.597 52.1155 76.6337V78.7959C52.1155 79.6243 51.5682 80.3589 50.7578 80.5933L47.5059 81.5519C47.2428 82.3595 46.906 83.1827 46.5114 83.9954L48.0952 86.8765C48.4899 87.6007 48.3636 88.4968 47.7848 89.0908L41.244 95.6814C40.6494 96.2701 39.7443 96.416 39.0077 96.02L35.9767 94.4362C35.14 94.8373 34.3139 95.1708 33.4878 95.4313L32.5195 98.651C32.2827 99.4482 31.5408 99.99 30.7041 99.99V100.011ZM25.9998 83.3077C20.9692 83.3077 16.8754 79.2022 16.8754 74.1642C16.8754 69.1262 20.9692 65.1301 25.9998 65.1301C31.0303 65.1301 35.24 69.1835 35.24 74.1642C35.24 79.1449 31.0935 83.3077 25.9998 83.3077ZM25.9998 68.8761C23.0109 68.8761 20.664 71.1997 20.664 74.159C20.664 77.1183 23.0583 79.5565 25.9998 79.5565C28.9413 79.5565 31.4513 77.087 31.4513 74.159C31.4513 71.231 29.0044 68.8761 25.9998 68.8761ZM73.3479 51.3464C66.3808 53.579 58.851 53.579 51.8839 51.3464V45.9781C51.8839 45.939 51.8827 45.9001 51.8803 45.8615C51.9258 44.2002 52.9073 42.7819 54.9569 41.3934C55.8252 40.8099 56.0462 39.6428 55.4568 38.7884C54.8675 37.9288 53.694 37.7152 52.8258 38.2935C49.6854 40.4132 48.0963 43.0015 48.0952 45.9751L48.0952 45.9781V52.6135C48.086 52.8548 48.1246 53.0927 48.205 53.3149C48.36 53.7429 48.6704 54.1126 49.0933 54.3365C49.1838 54.3847 49.2788 54.4258 49.3774 54.4591C53.6434 55.9967 58.1336 56.7681 62.6133 56.7681H62.6185C67.0985 56.7681 71.5837 56.0018 75.8552 54.4588C75.9694 54.4202 76.0786 54.3712 76.1818 54.3128C76.3005 54.2458 76.4097 54.1672 76.5086 54.0789C76.8943 53.7357 77.1366 53.2378 77.1366 52.6833V45.9781L77.1366 45.969C77.1351 43.001 75.546 40.4131 72.406 38.2936C71.5588 37.7049 70.3695 37.9237 69.7749 38.7833C69.1803 39.6378 69.4013 40.8048 70.2696 41.3883C72.3691 42.8158 73.3479 44.2694 73.3479 45.9783L73.3479 45.9876V51.3464ZM53.0258 28.702C53.0258 33.9797 57.3038 40.3515 62.6132 40.3515C67.9279 40.3515 72.2007 33.938 72.2007 28.702C72.2007 23.466 67.9016 19.2095 62.6132 19.2095C57.3249 19.2095 53.0258 23.4243 53.0258 28.702ZM56.8144 28.7072C56.8144 25.5396 59.4192 22.9659 62.6132 22.9659C65.8126 22.9659 68.412 25.5448 68.412 28.7072C68.412 32.0833 65.5442 36.6055 62.6132 36.6055C59.6823 36.6055 56.8144 32.0833 56.8144 28.7072Z" fill="url(#paint0_linear_111_3659)"/>
<defs>
<linearGradient id="paint0_linear_111_3659" x1="0" y1="100.011" x2="101.011" y2="100.011" gradientUnits="userSpaceOnUse">
<stop stop-color="#ED5C2F"/>
<stop offset="0.510417" stop-color="#F28230"/>
<stop offset="1" stop-color="#FAB331"/>
</linearGradient>
</defs>
</svg>
