<svg width="95" height="100" viewBox="0 0 95 100" fill="none" xmlns="http://www.w3.org/2000/svg">
<path fill-rule="evenodd" clip-rule="evenodd" d="M22.6899 23.8328C16.7258 23.8328 11.9177 16.6346 11.9177 10.6699C11.9177 4.70515 16.7521 0 22.6899 0C28.6277 0 33.3465 4.78842 33.3465 10.6699C33.3465 16.5513 28.5909 23.8328 22.6899 23.8328ZM22.6899 3.85676C18.9012 3.85676 15.8115 6.91719 15.8115 10.6699C15.8115 14.7348 19.1482 19.9761 22.6899 19.9761C26.2316 19.9761 29.4527 14.6463 29.4527 10.6699C29.4527 6.91719 26.4155 3.85676 22.6899 3.85676ZM0 42.4505C0 34.3101 6.67874 27.6948 14.8971 27.6948H30.367C30.4355 27.6948 30.5032 27.6983 30.5698 27.7051H50.997C54.7226 27.7051 57.7546 30.7083 57.7546 34.3985C57.7546 38.0887 54.7226 41.2064 50.997 41.2064H41.486C38.207 41.2064 35.6375 43.6995 35.6375 46.8848V93.9883C35.6375 97.3038 32.9155 100.005 29.563 100.005L29.5683 99.9999H26.8148C25.2115 99.9999 23.7505 99.3813 22.6633 98.3719C21.5728 99.3768 20.1219 100 18.5544 100H15.8167C12.4694 100 9.74225 97.3039 9.74225 93.9832V68.4567C8.83792 68.8841 7.82346 69.1243 6.75236 69.1251C3.02915 69.1223 0 66.1202 0 62.4317V42.4505ZM20.7404 93.9764L20.7404 93.9831L20.7404 93.989C20.7369 95.1369 19.719 96.1432 18.5597 96.1432H15.8114C14.5924 96.1432 13.6307 95.1907 13.6307 93.9832V59.4753C13.6307 59.4271 13.629 59.3792 13.6255 59.3319V43.0178C13.6255 41.9508 12.7584 41.092 11.6812 41.092C10.604 41.092 9.73699 41.9508 9.73699 43.0178V62.4317C9.73699 63.9931 8.39704 65.2683 6.75231 65.2683C5.20217 65.2683 3.88849 63.9671 3.88849 62.4317V42.5886C3.89197 42.5413 3.89374 42.4935 3.89374 42.4453C3.89374 36.4337 8.82792 31.5464 14.8971 31.5464H30.1642C30.2308 31.5532 30.2985 31.5566 30.367 31.5566H50.997C52.5471 31.5566 53.8608 32.8578 53.8608 34.3933C53.8608 36.0172 52.5787 37.3444 50.997 37.3444H41.486C36.1104 37.3444 31.7437 41.6175 31.7437 46.8796V93.9831C31.7437 95.1906 30.7821 96.1431 29.563 96.1431H26.8096C25.5925 96.1431 24.6321 95.1939 24.6289 93.9893L24.6289 93.9832V68.3287C24.6289 67.2617 23.7618 66.4029 22.6846 66.4029C21.6074 66.4029 20.7404 67.2617 20.7404 68.3287V93.9764ZM93.0557 71.7379H43.0887C42.0114 71.7379 41.1444 70.8791 41.1444 69.8121V44.9539C41.1444 43.8869 42.0114 43.0281 43.0887 43.0281C44.1659 43.0281 45.0329 43.8869 45.0329 44.9539V67.8863H91.1062V20.9962H45.0329V23.9473C45.0329 25.0143 44.1659 25.8731 43.0887 25.8731C42.0114 25.8731 41.1444 25.0143 41.1444 23.9473V19.0652C41.1444 17.9982 42.0114 17.1394 43.0887 17.1394H93.0557C94.133 17.1394 95 17.9982 95 19.0652V69.8017C95 70.8687 94.133 71.7274 93.0557 71.7274V71.7379ZM67.0344 57.9399C67.3489 58.1321 67.7105 58.2309 68.067 58.2314C68.0661 58.2314 68.0652 58.2314 68.0643 58.2314H68.0696C68.0687 58.2314 68.0679 58.2314 68.067 58.2314C68.4287 58.231 68.785 58.1372 69.0995 57.9399C70.2398 57.2321 80.2605 50.8718 81.4901 45.2246C81.7844 44.3502 81.9315 43.4602 81.9315 42.5701C81.9315 39.4629 80.2342 36.6002 77.4965 35.096C74.2544 33.3056 70.6864 33.6803 68.0696 35.6738C65.9624 34.0655 62.9567 33.7584 60.6972 34.206C59.641 34.4194 58.9579 35.4344 59.1681 36.4805C59.3835 37.5267 60.4345 38.1929 61.4644 37.9951C63.1039 37.6672 65.2951 37.9951 66.5405 39.5618C67.2814 40.4934 68.863 40.4934 69.604 39.5618C71.0227 37.7869 73.2823 37.1884 75.6049 38.4688C77.1077 39.2963 78.043 40.8682 78.043 42.5701C78.043 43.0438 77.959 43.5226 77.7435 44.2045C77.0972 47.14 71.8425 51.4912 68.0696 54.0051C64.2914 51.4912 59.0367 47.14 58.3956 44.2045C58.3818 44.136 58.3559 44.0596 58.332 43.9892C58.3286 43.9792 58.3253 43.9695 58.3221 43.9598C58.2748 42.9345 57.4551 42.1225 56.3778 42.1225C55.3006 42.1225 54.4336 42.9813 54.4336 44.0483C54.4336 44.3294 54.4336 44.8342 54.6701 45.3443C56.236 51.1008 65.9151 57.2477 67.0344 57.9399Z" fill="url(#paint0_linear_111_3669)"/>
<defs>
<linearGradient id="paint0_linear_111_3669" x1="0" y1="100.005" x2="95" y2="100.005" gradientUnits="userSpaceOnUse">
<stop stop-color="#ED5C2F"/>
<stop offset="0.510417" stop-color="#F28230"/>
<stop offset="1" stop-color="#FAB331"/>
</linearGradient>
</defs>
</svg>
